<?xml version="1.0" encoding="utf-8"?>
<!-- Generator: Adobe Illustrator 27.2.0, SVG Export Plug-In . SVG Version: 6.00 Build 0)  -->
<svg version="1.1" id="Ebene_1" xmlns="http://www.w3.org/2000/svg" xmlns:xlink="http://www.w3.org/1999/xlink" x="0px" y="0px"
	 viewBox="0 0 440 120" style="enable-background:new 0 0 440 120;" xml:space="preserve">
<style type="text/css">
	.st0{fill:#E3051B;}
	.st1{fill:#ACADB0;}
	.st2{fill:#FFFFFF;}
</style>
<g>
	<g>
		<g>
			<path vector-effect="non-scaling-stroke" class="st0" d="M144.1,103.5c-0.4-0.8-0.8-1.4-1-2.2c-0.4-0.8-0.6-1.4-1-2.2
				c-0.4-0.6-0.6-1.4-0.8-1.8c-0.2-0.6-0.4-1-0.6-1.6h-0.2c0.2,1.2,0.2,2.5,0.2,3.7c0,1.4,0,2.5,0.2,3.9l0.2,14.7h-3.9V90.4h4.5
				l7.8,15.3c0.4,0.6,0.6,1.2,1,2s0.6,1.4,0.8,2s0.6,1.2,0.6,1.8c0.2,0.6,0.2,0.8,0.4,1h0.2c0-0.2,0-0.6-0.2-1.2
				c0-0.6-0.2-1.4-0.2-2.2c0-0.8,0-1.6-0.2-2.5c0-0.8,0-1.8,0-2.5V90.2h3.7V118h-4.1L144.1,103.5z"/>
			<path vector-effect="non-scaling-stroke" class="st0" d="M172.9,116.2c-0.2,0.2-0.4,0.4-0.6,0.8c-0.2,0.4-0.6,0.6-1.2,1
				c-0.4,0.4-1,0.6-1.8,0.8c-0.6,0.2-1.4,0.4-2.3,0.4c-2,0-3.5-0.6-4.7-1.6s-1.8-2.5-1.8-4.5c0-2.3,1-4.1,2.7-5.3
				c1.8-1.2,4.3-1.8,7.6-1.8h1c0.2,0,0.2,0,0.4,0v-1.4c0-0.6,0-1.2-0.2-1.6c0-0.6-0.2-1-0.4-1.2c-0.2-0.4-0.6-0.6-1-0.8
				c-0.4-0.2-1-0.2-1.8-0.2c-1.2,0-2.2,0.2-3.3,0.8c-1.2,0.4-2.2,1-2.9,1.6l-1.8-2.7c0.4-0.2,1-0.6,1.6-0.8c0.6-0.4,1.2-0.6,2-0.8
				c0.8-0.2,1.4-0.6,2.3-0.6c0.8-0.2,1.8-0.2,2.7-0.2c1.6,0,2.7,0.2,3.7,0.8c1,0.6,1.8,1.4,2.2,2.3c0.2,0.4,0.2,1,0.4,1.4
				c0,0.4,0,1.2,0,2.2c0,0.4,0,0.8,0,1.4s0,1.2,0,1.8c0,0.6,0,1.4,0,2.2c0,0.8,0,1.6,0,2.2c0,0.8,0,1.4,0,1.8c0,0.6,0,1,0.2,1.4
				s0.2,0.8,0.4,1s0.6,0.6,1,0.8l-2,2.5C174.5,118.7,173.5,117.8,172.9,116.2z M171.7,108.4c-0.2,0-0.4,0-0.6,0
				c-1.4,0-2.5,0.2-3.3,0.4c-0.8,0.2-1.6,0.6-2,1s-0.6,1-0.8,1.4s-0.2,1-0.2,1.6c0,1.2,0.2,2,0.8,2.5c0.6,0.6,1.4,1,2.3,1
				c0.8,0,1.8-0.2,2.3-0.8c0.8-0.4,1.4-1.2,1.8-2l0.2-5.1C172.1,108.4,171.7,108.4,171.7,108.4z"/>
			<path vector-effect="non-scaling-stroke" class="st0" d="M194.6,104.5c0-1.4-0.2-2.3-0.8-2.7c-0.2-0.2-0.4-0.4-1-0.6
				c-0.4-0.2-0.8-0.2-1.4-0.2c-0.8,0-1.8,0.2-2.7,0.8c-1,0.6-1.8,1.2-2.5,2.2v14.5h-3.7V93.8c0-0.8,0-1.6-0.2-2.3
				c0-0.8-0.2-1.4-0.4-2l3.7-0.8c0.2,0.6,0.2,1.4,0.4,2.2c0,0.8,0.2,1.6,0.2,2.5v4.5c0,0.8,0,1.6-0.2,2.7c0.4-0.4,0.8-0.8,1.2-1
				c0.2-0.2,0.6-0.4,1-0.8c0.8-0.4,1.6-0.8,2.2-1c0.8-0.2,1.4-0.4,2.2-0.4c1.2,0,2.3,0.2,3.3,0.8c1,0.6,1.6,1.4,2,2.2
				c0.2,0.4,0.2,1,0.4,1.4c0,0.4,0,1,0,2v14.5h-3.7V104.5L194.6,104.5z"/>
			<path vector-effect="non-scaling-stroke" class="st0" d="M210.3,115.8c0,0.8-0.2,1.6-0.8,2.2s-1.2,1-2.2,1c-0.8,0-1.6-0.4-2.2-1
				c-0.6-0.6-0.8-1.4-0.8-2.2c0-0.8,0.2-1.6,0.8-2.2s1.2-1,2.2-1c0.8,0,1.6,0.4,2.2,1C209.9,114.2,210.3,115,210.3,115.8z"/>
			<path vector-effect="non-scaling-stroke" class="st0" d="M236.9,110.5h-9.6l-2.3,7.8h-4.1l9.2-27.8h4.9l9,27.8h-4.3L236.9,110.5z
				 M235.5,106c-0.2-0.6-0.4-1.4-0.8-2.3c-0.2-0.8-0.6-1.8-0.8-2.7c-0.4-1-0.6-2-0.8-2.7c-0.2-0.8-0.4-1.6-0.6-2.3
				c-0.2-0.8-0.4-1.2-0.4-1.4H232c0,0.2-0.2,0.8-0.4,1.4s-0.4,1.4-0.6,2.3c-0.2,0.8-0.6,1.8-0.8,2.7c-0.4,1-0.6,2-0.8,2.7
				c-0.2,0.8-0.6,1.6-0.8,2.3c-0.2,0.6-0.4,1.2-0.4,1.4h7.8C235.9,107,235.7,106.6,235.5,106z"/>
			<path vector-effect="non-scaling-stroke" class="st0" d="M268.8,103.9c0-1.2-0.2-2-0.6-2.3c-0.4-0.4-1-0.6-2-0.6
				s-1.8,0.2-2.5,0.8c-0.8,0.6-1.4,1.2-2.2,2v14.9h-3.7v-14.5c0-1.2-0.2-2-0.6-2.3c-0.4-0.4-1-0.8-2-0.8c-0.8,0-1.4,0.2-2.2,0.6
				s-1.6,1-2.5,1.8v15.3h-3.7v-15.1c0-0.8,0-1.4,0-1.8s0-1-0.2-1.2c0-0.4-0.2-0.8-0.2-1c0-0.4-0.2-0.6-0.4-1l3.5-0.8
				c0.4,0.8,0.8,1.6,0.8,2.7c0.8-1,1.8-1.6,2.7-2.2s2-0.8,2.9-0.8s1.8,0.2,2.7,0.8c0.8,0.6,1.6,1.4,2.2,2.3c2-2.2,4.1-3.1,6.1-3.1
				c1.6,0,2.9,0.4,3.7,1.4c1,1,1.4,2.3,1.4,4.3v15.1h-3.7v-14.5C268.4,103.9,268.8,103.9,268.8,103.9z"/>
			<path vector-effect="non-scaling-stroke" class="st0" d="M292.4,103.5c-0.4-0.8-0.8-1.4-1-2.2c-0.4-0.8-0.6-1.4-1-2.2
				c-0.4-0.6-0.6-1.4-0.8-1.8c-0.2-0.6-0.4-1-0.6-1.6h-0.2c0.2,1.2,0.2,2.5,0.2,3.7c0,1.4,0,2.5,0.2,3.9l0.2,14.7h-3.9V90.4h4.5
				l7.8,15.3c0.4,0.6,0.6,1.2,1,2s0.6,1.4,0.8,2s0.6,1.2,0.6,1.8c0.2,0.6,0.2,0.8,0.4,1h0.2c0-0.2,0-0.6-0.2-1.2
				c0-0.6-0.2-1.4-0.2-2.2c0-0.8,0-1.6-0.2-2.5c0-0.8,0-1.8,0-2.5V90.2h3.7V118h-4.1L292.4,103.5z"/>
			<path vector-effect="non-scaling-stroke" class="st0" d="M320.8,116.2c-0.2,0.2-0.4,0.4-0.6,0.8s-0.6,0.6-1.2,1
				c-0.4,0.4-1,0.6-1.8,0.8c-0.6,0.2-1.4,0.4-2.3,0.4c-2,0-3.5-0.6-4.7-1.6s-1.8-2.5-1.8-4.5c0-2.3,1-4.1,2.7-5.3
				c1.8-1.2,4.3-1.8,7.6-1.8h1c0.2,0,0.2,0,0.4,0v-1.4c0-0.6,0-1.2-0.2-1.6c0-0.6-0.2-1-0.4-1.2c-0.2-0.4-0.6-0.6-1-0.8
				c-0.4-0.2-1-0.2-1.8-0.2c-1.2,0-2.2,0.2-3.3,0.8c-1.2,0.4-2.2,1-2.9,1.6l-1.8-2.7c0.4-0.2,1-0.6,1.6-0.8c0.6-0.4,1.2-0.6,2-0.8
				c0.8-0.2,1.4-0.6,2.3-0.6c0.8-0.2,1.8-0.2,2.7-0.2c1.6,0,2.7,0.2,3.7,0.8c1,0.6,1.8,1.4,2.2,2.3c0.2,0.4,0.2,1,0.4,1.4
				c0,0.4,0,1.2,0,2.2c0,0.4,0,0.8,0,1.4s0,1.2,0,1.8c0,0.6,0,1.4,0,2.2c0,0.8,0,1.6,0,2.2c0,0.8,0,1.4,0,1.8c0,0.6,0,1,0.2,1.4
				s0.2,0.8,0.4,1c0.2,0.2,0.6,0.6,1,0.8l-2,2.5C322.2,118.7,321.2,117.8,320.8,116.2z M314.8,93.1c0,0.8-0.2,1.4-0.8,1.8
				c-0.4,0.6-1,0.8-1.8,0.8c-0.6,0-1.2-0.2-1.6-0.8c-0.4-0.6-0.8-1.2-0.8-1.8c0-0.8,0.2-1.4,0.8-1.8c0.4-0.4,1-0.8,1.6-0.8
				s1.2,0.2,1.8,0.8C314.6,91.7,314.8,92.3,314.8,93.1z M319.5,108.4c-0.2,0-0.4,0-0.6,0c-1.4,0-2.5,0.2-3.3,0.4
				c-0.8,0.2-1.6,0.6-2,1s-0.6,1-0.8,1.4c-0.2,0.4-0.2,1-0.2,1.6c0,1.2,0.2,2,0.8,2.5c0.6,0.6,1.4,1,2.3,1c0.8,0,1.8-0.2,2.3-0.8
				c0.8-0.4,1.4-1.2,1.8-2l0.2-5.1C319.8,108.4,319.6,108.4,319.5,108.4z M323.2,93.1c0,0.8-0.2,1.4-0.8,1.8c-0.4,0.6-1,0.8-1.6,0.8
				s-1.2-0.2-1.8-0.8c-0.4-0.6-0.8-1.2-0.8-1.8c0-0.8,0.2-1.4,0.8-1.8c0.4-0.4,1-0.8,1.8-0.8c0.6,0,1.2,0.2,1.6,0.8
				C323,91.7,323.2,92.3,323.2,93.1z"/>
			<path vector-effect="non-scaling-stroke" class="st0" d="M340.2,118.2c-1,0.4-2.2,0.6-3.3,0.6c-2.9,0-5.1-1-6.5-2.9
				c-0.6-1-1.2-2-1.6-3.1c-0.4-1.2-0.4-2.5-0.4-4.1c0-2.3,0.4-4.1,1-5.5s1.4-2.5,2.3-3.3c1.6-1.4,3.3-2.2,5.3-2.2
				c1.2,0,2.2,0.2,2.9,0.6c0.8,0.4,1.8,1,2.5,1.6l-2,2.5c-0.6-0.6-1.4-1-1.8-1.2c-0.6-0.2-1.2-0.4-1.8-0.4c-1.8,0-2.9,0.8-3.5,2.2
				c-0.6,1.4-1,3.5-1,6.3c0,1.4,0.2,2.5,0.4,3.5c0.2,1,0.6,1.8,1.2,2.2c0.8,0.8,1.8,1.2,2.9,1.2c1.6,0,2.9-0.8,4.1-2.2l1.8,2.3
				C342.1,117,341.2,117.8,340.2,118.2z"/>
			<path vector-effect="non-scaling-stroke" class="st0" d="M359,104.5c0-1.4-0.2-2.3-0.8-2.7c-0.2-0.2-0.4-0.4-1-0.6
				c-0.4-0.2-0.8-0.2-1.4-0.2c-0.8,0-1.8,0.2-2.7,0.8c-1,0.6-1.8,1.2-2.5,2.2v14.5h-3.7V93.8c0-0.8,0-1.6-0.2-2.3
				c0-0.8-0.2-1.4-0.4-2l3.7-0.8c0.2,0.6,0.2,1.4,0.4,2.2c0,0.8,0.2,1.6,0.2,2.5v4.5c0,0.8,0,1.6-0.2,2.7c0.4-0.4,0.8-0.8,1.2-1
				c0.2-0.2,0.6-0.4,1-0.8c0.8-0.4,1.6-0.8,2.2-1c0.8-0.2,1.4-0.4,2.2-0.4c1.2,0,2.3,0.2,3.3,0.8c1,0.6,1.6,1.4,2,2.2
				c0.2,0.4,0.2,1,0.4,1.4c0,0.4,0,1,0,2v14.5H359V104.5L359,104.5z"/>
			<path vector-effect="non-scaling-stroke" class="st0" d="M382.3,112.1c0,1-0.2,2-0.6,2.7s-1,1.6-1.6,2.2c-0.8,0.6-1.6,1-2.5,1.4
				s-2.2,0.4-3.1,0.4c-1.2,0-2.5-0.2-3.7-0.6c-1.4-0.4-2.5-1-3.7-1.6l1.4-2.7c1,0.6,2,1,3.1,1.4c1.2,0.4,2.2,0.6,3.3,0.6
				s2-0.2,2.7-1c0.8-0.6,1-1.4,1-2.3c0-0.8-0.2-1.6-0.8-2.2c-0.6-0.6-1.4-1-2.5-1.2l-2.5-0.4c-3.3-0.6-4.9-2.5-4.9-5.7
				c0-1,0.2-1.8,0.6-2.5c0.4-0.8,0.8-1.4,1.6-2c0.6-0.6,1.4-1,2.3-1.4c1-0.4,2-0.4,2.9-0.4c1.2,0,2.3,0.2,3.5,0.4
				c1.2,0.4,2,0.8,2.9,1.2l-1.2,2.5c-1-0.4-1.8-0.8-2.5-1c-0.8-0.2-1.6-0.4-2.3-0.4c-1.2,0-2,0.2-2.5,0.8c-0.6,0.6-1,1.4-1,2.2
				c0,0.8,0.2,1.4,0.6,1.8s1.2,0.8,2.2,1l2.5,0.6c2,0.4,3.1,1.2,4.1,2.2C381.9,109.5,382.3,110.7,382.3,112.1z"/>
			<path vector-effect="non-scaling-stroke" class="st0" d="M390.9,100.7v12.1c0,1.2,0.2,2.2,0.6,2.5c0.4,0.4,1,0.8,2.2,0.8
				c0.8,0,1.4-0.2,2-0.4l0.4,2.3c-1.2,0.6-2.3,0.8-3.7,0.8c-0.6,0-1.4,0-2-0.2s-1.2-0.4-1.4-0.8c-0.2-0.2-0.4-0.4-0.6-0.6
				s-0.4-0.4-0.4-0.8c-0.2-0.2-0.2-0.6-0.4-1.2c0-0.4-0.2-1-0.2-1.8v-13.1h-2.5v-2.5h2.3c0-0.8,0-1.6,0-2.5c0-1,0-1.8,0.2-2.5l3.9-1
				c0,0.4-0.2,0.8-0.2,1.2s0,1-0.2,1.6c0,0.6,0,1.2,0,1.6c0,0.6,0,1.2,0,1.6h4.9l-1,2.5h-3.9L390.9,100.7L390.9,100.7z"/>
			<path vector-effect="non-scaling-stroke" class="st0" d="M403,109.5c0,1.8,0.2,3.1,0.8,4.1c0.6,0.8,1.2,1.4,2,1.8
				s1.8,0.6,2.7,0.6c2,0,3.5-0.6,4.9-2l1.4,2.2c-2,1.8-4.3,2.5-7,2.5c-1.4,0-2.7-0.2-3.7-0.8c-1.2-0.6-2.2-1.2-2.9-2.2
				c-0.8-1-1.4-2-1.8-3.3c-0.4-1.4-0.6-2.7-0.6-4.5s0.2-3.3,0.6-4.5s1-2.3,1.8-3.3c1.6-1.8,3.5-2.7,6.1-2.7c2.2,0,4.1,0.8,5.5,2.2
				c0.4,0.4,0.8,1,1.2,1.6c0.4,0.6,0.6,1.2,0.8,1.8c0.2,0.8,0.4,1.6,0.4,2.3c0,1,0.2,2,0.2,3.1v0.6h-12.3L403,109.5L403,109.5z
				 M410,101.7c-0.4-0.4-0.8-0.8-1.2-1c-0.4-0.2-1-0.4-1.8-0.4c-1.4,0-2.5,0.6-3.1,1.6s-1,2.5-1,4.3h8.4
				C411.4,104.3,411,102.7,410,101.7z"/>
			<path vector-effect="non-scaling-stroke" class="st0" d="M431.4,104.7c0-1,0-1.6-0.2-2c0-0.4-0.2-0.8-0.6-1.2
				c-0.4-0.6-1.2-0.8-2.2-0.8c-0.8,0-1.6,0.2-2.5,0.8c-1,0.6-1.8,1.2-2.5,1.8v14.9h-3.7v-15.1c0-0.6,0-1.2,0-1.6s0-0.8-0.2-1.2
				c0-0.4-0.2-0.8-0.2-1c0-0.4-0.2-0.6-0.4-1l3.5-1c0.2,0.4,0.4,1,0.6,1.4s0.2,1,0.2,1.6c0.6-0.4,1-0.8,1.4-1.2
				c0.4-0.4,0.8-0.6,1.2-0.8c0.6-0.4,1.2-0.6,1.8-0.8c0.6-0.2,1.4-0.2,2-0.2c1,0,2,0.2,2.9,0.8c0.8,0.6,1.6,1.2,1.8,2.2
				c0.4,0.8,0.4,1.6,0.4,2.5v15.3H431v-13.5L431.4,104.7L431.4,104.7z"/>
		</g>
		<g>
			<path vector-effect="non-scaling-stroke" class="st1" d="M180.3,23.6c-2-7.8-7-13.5-17-13.5c-14.7,0-20.7,12.7-20.7,25.8
				c0,12.9,6.1,25.8,20.7,25.8c10.6,0,16.4-7.8,17.4-17.6h11.5c-1,16.2-12.3,27.4-29,27.4c-20.3,0-32.5-16-32.5-35.4
				S143,0.8,163.3,0.8c15.3,0,27.4,8.6,28.8,23.1L180.3,23.6"/>
			<path vector-effect="non-scaling-stroke" class="st1" d="M231.8,53.4c0,6.8-7.4,9.2-12.1,9.2c-3.9,0-10-1.4-10-6.3
				c0-5.7,4.1-7.2,8.8-8c4.9-1,10-0.8,13.5-2.9L231.8,53.4L231.8,53.4z M242.7,33.8c0-10.4-10-14.3-19.8-14.3
				c-11,0-21.5,3.7-22.3,16.2h10.8c0.4-5.3,4.7-7.8,11-7.8c4.3,0,10.2,1,10.2,6.7c0,6.5-7,5.5-14.9,7c-9.2,1-19,3.1-19,15.3
				c0,9.6,8,14.3,16.8,14.3c5.9,0,12.7-1.8,17-5.9c0.8,4.5,3.9,5.9,8.4,5.9c1.8,0,5.3-0.6,6.8-1.2v-7.6c-1.2,0.2-2,0.2-2.7,0.2
				c-2,0-2.5-1-2.5-3.7L242.7,33.8"/>
			<path vector-effect="non-scaling-stroke" class="st1" d="M254.3,20.9h10.2v9.6h0.2c1.2-5.3,7.6-10.8,14.3-10.8
				c2.5,0,3.1,0.2,4.1,0.2v10.4c-1.6-0.2-3.1-0.4-4.7-0.4c-7.4,0-13.3,6.1-13.3,16.8V70h-10.8L254.3,20.9"/>
			<path vector-effect="non-scaling-stroke" class="st1" d="M288.1,20.9h10.8v48.9h-10.8V20.9z M288.1,2.1h10.8v10.2h-10.8V2.1z"/>
			<path vector-effect="non-scaling-stroke" class="st1" d="M305.8,20.9h8.2V6.2h10.8v14.7h9.8v8h-9.8v26.2c0,4.5,0.4,6.7,5.3,6.7
				c1.6,0,3.1,0,4.5-0.4v8.4c-2.3,0.2-4.7,0.6-7,0.6c-11.3,0-13.3-4.3-13.5-12.5v-29h-8.2L305.8,20.9"/>
			<path vector-effect="non-scaling-stroke" class="st1" d="M372.7,53.4c0,6.8-7.4,9.2-12.1,9.2c-3.9,0-10-1.4-10-6.3
				c0-5.7,4.1-7.2,8.8-8c4.9-1,10-0.8,13.5-2.9L372.7,53.4L372.7,53.4z M383.6,33.8c0-10.4-10-14.3-19.8-14.3
				c-11,0-21.5,3.7-22.3,16.2h10.8c0.4-5.3,4.7-7.8,11-7.8c4.3,0,10.2,1,10.2,6.7c0,6.5-7,5.5-14.9,7c-9.2,1-19,3.1-19,15.3
				c0,9.6,8,14.3,16.8,14.3c5.9,0,12.7-1.8,17-5.9c0.8,4.5,3.9,5.9,8.4,5.9c1.8,0,5.3-0.6,6.8-1.2v-7.6c-1.2,0.2-2,0.2-2.7,0.2
				c-2,0-2.5-1-2.5-3.7L383.6,33.8"/>
			<path vector-effect="non-scaling-stroke" class="st1" d="M403.4,54.2c0.6,6.3,5.3,8.6,11.2,8.6c4.1,0,11.2-0.8,11-6.5
				s-8.2-6.3-16-8.2c-8-1.8-15.8-4.5-15.8-14.5c0-10.8,11.5-14.1,20.5-14.1c10.2,0,19.2,4.1,20.5,15.1h-11.3c-1-5.1-5.3-6.5-10-6.5
				c-3.1,0-9,0.8-9,5.1c0,5.3,8,6.1,16,7.8c7.8,1.8,15.8,4.7,15.8,14.3c0,11.7-11.7,15.8-21.9,15.8c-12.3,0-21.5-5.5-21.7-17h10.7"
				/>
		</g>
	</g>
	<path vector-effect="non-scaling-stroke" class="st0" d="M85.8,117.4c3.1,0,5.9-2.5,5.9-5.9V7c0-3.1-2.5-5.9-5.9-5.9H9.1
		C6,1.1,3.2,3.6,3.2,7v104.5c0,3.1,2.5,5.9,5.9,5.9H85.8L85.8,117.4z"/>
	<polygon vector-effect="non-scaling-stroke" class="st2" points="87.6,39.5 54.7,39.5 54.7,6.6 40.4,6.6 40.4,39.5 7.5,39.5 
		7.5,53.8 40.4,53.8 40.4,86.7 54.7,86.7 54.7,53.8 87.6,53.8 	"/>
	<path vector-effect="non-scaling-stroke" class="st2" d="M28.7,31.3c2.3,2,4.3,4.3,6.1,6.7h3.9v-4.9c-1-1.4-2.2-2.7-3.3-3.9
		c-2.5-2.7-5.9-4.5-9-6.7c-2.2-1.6-4.3-4.1-5.9-6.3c-1.6,1.4-2.9,2.7-4.1,4.3c0.2,0.4,0.8,1.2,1.6,2.3c2,3.1,5.1,4.7,8.2,6.7
		C26.9,29.9,27.7,30.7,28.7,31.3L28.7,31.3z"/>
	<path vector-effect="non-scaling-stroke" class="st2" d="M31.4,37.7c-0.8-1.6-2.3-3.3-3.5-4.7c-3.7-3.3-8.6-4.3-11.3-8.8
		c-0.8-1.2-1.2-2-1.4-2.3c-1.2,1.6-2.3,3.3-3.3,5.1c1.8,3.1,4.3,5.9,7.6,7.6c2.5,1.4,3.9,2.5,4.5,2.9L31.4,37.7L31.4,37.7z"/>
	<path vector-effect="non-scaling-stroke" class="st2" d="M73.9,15.8c-1.2,1-2.5,1.8-3.7,2.7c-2.7,2.2-4.3,5.3-6.3,8.2
		c-2,2.7-4.9,4.9-7.8,6.7v4.3h5.1c2.3-1.6,4.9-3.9,6.7-5.9c2.9-3.9,4.9-8.8,9.2-11.3c0.4-0.2,0.8-0.4,1.2-0.6
		C76.8,18.6,75.4,17.2,73.9,15.8L73.9,15.8z"/>
	<path vector-effect="non-scaling-stroke" class="st2" d="M83.5,65.5c-1.8-2.3-3.7-4.7-6.3-6.3c-1.8-1-3.9-2.3-5.7-3.7h-7.8l0.8,1.2
		c2.5,3.5,6.3,5.5,9.6,7.8c2.3,1.6,4.5,3.9,6.1,6.3C81.5,69.2,82.5,67.5,83.5,65.5L83.5,65.5L83.5,65.5z"/>
	<path vector-effect="non-scaling-stroke" class="st2" d="M78,71.6c-2.5-4.1-7.2-6.5-11-9c-2.7-2-4.5-4.3-6.3-6.8H56v4.1
		c2,2.9,5.1,6.5,8,8.2c3.7,2.3,7.6,5.5,10.6,9c1.4-1.4,2.7-2.7,3.9-4.1C78.6,72.4,78.4,72,78,71.6L78,71.6z"/>
	<path vector-effect="non-scaling-stroke" class="st2" d="M33.6,55.5c-3.3,2.3-6.3,5.3-8.4,8.6c-2.2,3.7-4.7,6.8-8.2,9.4l0,0
		c1.4,1.6,2.7,2.9,4.1,4.1c0.4-0.2,0.8-0.4,1.2-0.8c3.3-2.5,6.1-5.7,8-9c2-3.1,5.1-6.1,8.2-8.2v-4.1H33.6L33.6,55.5z"/>
	<path vector-effect="non-scaling-stroke" class="st2" d="M21.1,55.5c-2,2-3.3,3.9-4.7,6.1c-1,1.8-2.7,3.5-4.5,4.7
		c1,1.8,2.2,3.5,3.3,5.1l2.2-1.6c1-0.6,1.8-1.4,2.3-2.2c1.6-1.8,2.9-4.1,4.3-6.1c1.6-2.2,3.5-3.9,5.5-5.7c0.2-0.2,0.4-0.4,0.8-0.6
		h-9.2C21.1,55.2,21.1,55.5,21.1,55.5z"/>
	<path vector-effect="non-scaling-stroke" class="st2" d="M38.7,62.6c-2.9,2-5.7,4.7-7.4,7.8c-1.8,3.1-4.3,5.9-7.4,8
		c-0.4,0.4-0.8,0.6-1,0.8c1.8,1.4,3.5,2.3,5.3,3.5c0.4-0.4,1-0.8,1.8-1.2c3.9-2.7,6.1-7,8.8-11L38.7,62.6L38.7,62.6z"/>
	<path vector-effect="non-scaling-stroke" class="st2" d="M64.9,71.4c-3.1-1.8-6.5-5.1-8.6-7.8v8.6c0.2,0.2,0.6,0.8,1.4,1.6
		c2.5,3.1,6.7,4.3,9.4,7.2c0.4,0.6,0.8,0.8,1,1.2c1.8-1,3.3-2.2,4.9-3.3C70.8,75.5,68,73,64.9,71.4L64.9,71.4z"/>
	<path vector-effect="non-scaling-stroke" class="st2" d="M67,11.1c-0.8,0.4-2.2,1.2-4.3,3.3c-2.3,2.2-4.1,6.3-6.5,8.8v7.2
		c2.9-2.2,6.1-5.1,8-8c1.8-2.9,4.1-5.5,7-7.2c0.4-0.2,0.8-0.4,1.2-0.6C70.8,13.3,69,12.1,67,11.1L67,11.1z"/>
	<path vector-effect="non-scaling-stroke" class="st2" d="M38.7,21.1c-0.4-0.4-1-1.2-1.4-1.6c-2.9-2.7-7.2-4.7-10-8
		c-1.8,1-3.3,2.2-4.9,3.3c2.2,2.7,5.1,5.9,8.2,7.4c3.1,1.8,5.9,4.5,8.2,7L38.7,21.1L38.7,21.1z"/>
	<path vector-effect="non-scaling-stroke" class="st2" d="M22,103.7c-0.6-2.2-2.2-3.5-4.5-3.5c-3.5,0-5.1,3.3-5.1,6.5
		s1.4,6.3,5.1,6.3c2.5,0,4.3-1.6,4.7-4.1H24c-0.6,3.3-2.7,5.7-6.5,5.7c-4.7,0-6.8-3.5-6.8-7.8c0-4.1,2.3-8,6.8-8
		c3.5,0,5.7,1.6,6.3,5.1L22,103.7L22,103.7z"/>
	<path vector-effect="non-scaling-stroke" class="st2" d="M32.8,105.2c0.6,0,1.8-0.2,2.3-0.6c0.6-0.2,0.6-1,0.6-1.6
		c0-1.8-1-3.1-3.7-3.1c-2.3,0-4.1,0.8-4.3,3.3h-1.8c0.2-3.5,2.9-4.9,6.3-4.9c3.1,0,5.5,1.2,5.5,4.7v8.2c0,1.4,0.4,1.8,1.8,1.2v1.4
		c-0.2,0-0.8,0.2-1.4,0.2c-0.2,0-0.6,0-0.8,0c-1.2-0.2-1.4-1.2-1.4-2.2c-1.4,1.6-3.5,2.5-5.7,2.5c-2.5,0-5.1-1.4-5.1-4.3
		c0-2.5,1.8-4.1,5.3-4.5L32.8,105.2L32.8,105.2z M35.7,106c-1.6,0.6-2.9,0.8-4.5,0.8c-2.5,0.2-4.3,1.2-4.3,3.1
		c0,1.8,1.6,2.7,3.3,2.7c2.7,0,5.5-1.4,5.5-4.3V106L35.7,106z"/>
	<path vector-effect="non-scaling-stroke" class="st2" d="M42,113.8h-1.8V98.7H42v2.7l0,0c1-2.3,2.3-3.1,4.9-3.1v2
		c-3.9,0-4.9,2.7-4.9,6.3V113.8L42,113.8z"/>
	<path vector-effect="non-scaling-stroke" class="st2" d="M48.4,113.8V98.7h1.8v15.1H48.4L48.4,113.8z M48.2,95.7v-2.5h2v2.5H48.2
		L48.2,95.7z"/>
	<path vector-effect="non-scaling-stroke" class="st2" d="M58,114c-0.4,0-1.2,0.4-2,0.4c-1.8,0-2.7-0.8-2.7-2.9v-11h-2.2v-1.4h2.2
		V95h1.8v4.1h2.7v1.4h-2.7v10.4c0,1.6,0,2.2,1.6,2.2c0.4,0,1,0,1.4-0.2L58,114L58,114z"/>
	<path vector-effect="non-scaling-stroke" class="st2" d="M66.1,105.2c0.6,0,1.8-0.2,2.3-0.6c0.6-0.2,0.6-1,0.6-1.6
		c0-1.8-1-3.1-3.7-3.1c-2.3,0-4.1,0.8-4.3,3.3h-1.8c0.2-3.5,2.9-4.9,6.3-4.9c3.1,0,5.5,1.2,5.5,4.7v8.2c0,1.4,0.4,1.8,1.8,1.2v1.4
		c-0.2,0-0.8,0.2-1.4,0.2c-0.2,0-0.6,0-0.8,0c-1.2-0.2-1.4-1.2-1.4-2.2c-1.4,1.6-3.5,2.5-5.7,2.5c-2.5,0-5.1-1.4-5.1-4.3
		c0-2.5,1.8-4.1,5.3-4.5L66.1,105.2L66.1,105.2z M69,106c-1.6,0.6-2.9,0.8-4.5,0.8c-2.5,0.2-4.3,1.2-4.3,3.1c0,1.8,1.6,2.7,3.3,2.7
		c2.7,0,5.5-1.4,5.5-4.3V106L69,106z"/>
	<path vector-effect="non-scaling-stroke" class="st2" d="M74.3,109.2c0.6,2.5,2,3.5,4.5,3.5s3.7-1.4,3.7-2.7c0-4.3-9.6-1.4-9.6-7.2
		c0-2.5,2-4.3,5.3-4.3s5.3,1.4,5.9,4.7h-1.8c-0.4-2.3-2-3.1-4.1-3.1s-3.3,1-3.3,2.5c0,4.1,9.6,1.6,9.6,7.2c0,2.9-2.5,4.3-6.1,4.3
		s-5.5-2.3-5.7-5.1h1.6V109.2z"/>
	<path vector-effect="non-scaling-stroke" class="st2" d="M79.8,21.9c-0.4,0.2-0.6,0.4-1.2,0.6c-3.7,2.3-5.9,6.3-8.2,9.6
		c-1.4,2-3.5,4.1-5.3,5.7h8.4c2-1.8,3.7-4.3,4.9-6.1c1.2-1.8,3.1-3.5,4.7-5.1C81.9,25,80.9,23.4,79.8,21.9L79.8,21.9z"/>
</g>
</svg>
