<?xml version="1.0" encoding="UTF-8"?><svg id="Ebene_1" xmlns="http://www.w3.org/2000/svg" viewBox="0 0 227.89 89.39"><defs><style>.cls-1{letter-spacing:-.01em;}.cls-2{letter-spacing:0em;}.cls-3{font-family:Lato-Black, Lato;font-size:7px;font-weight:800;}.cls-4{letter-spacing:0em;}.cls-5{letter-spacing:0em;}.cls-6{letter-spacing:0em;}.cls-7{fill:none;stroke:#000;stroke-miterlimit:10;}.cls-8,.cls-9,.cls-10,.cls-11{stroke-width:0px;}.cls-9{fill:#e50051;}.cls-10{fill:#fc0;}.cls-11{fill:#fff;}</style></defs><path class="cls-8" d="M81.04,42.56c0,.58-.1,1.12-.29,1.61-.2.49-.47.91-.83,1.26s-.79.63-1.29.83-1.06.3-1.67.3h-3.07v-7.98h3.07c.61,0,1.17.1,1.67.3.5.2.93.47,1.29.83.36.35.63.77.83,1.26.2.49.29,1.02.29,1.6h0ZM79.34,42.56c0-.42-.05-.79-.17-1.13-.11-.33-.27-.62-.47-.85-.21-.23-.46-.41-.75-.53s-.63-.19-1-.19h-1.41v5.4h1.41c.37,0,.71-.06,1-.18.3-.12.55-.3.75-.53.21-.23.36-.52.47-.85s.17-.71.17-1.13h0Z"/><path class="cls-8" d="M83.24,43.95c.05.53.2.92.45,1.17s.59.37,1,.37c.21,0,.39-.02.54-.07s.29-.1.4-.17c.12-.06.22-.12.31-.17s.19-.07.28-.07c.12,0,.21.04.27.13l.44.55c-.16.19-.34.34-.53.46-.19.12-.4.22-.6.29-.21.07-.42.12-.63.15-.21.03-.42.04-.62.04-.4,0-.77-.06-1.11-.2-.34-.13-.64-.32-.9-.58-.25-.25-.46-.57-.6-.95-.15-.38-.22-.82-.22-1.31,0-.38.06-.75.19-1.09s.31-.64.55-.89.53-.45.87-.6c.34-.15.73-.22,1.15-.22.36,0,.7.06,1,.17.31.12.57.28.79.5s.39.49.52.81c.12.32.18.69.18,1.1,0,.11,0,.21-.02.28-.01.07-.03.13-.05.18-.03.04-.06.07-.1.09s-.1.02-.17.02h-3.4,0ZM85.63,43.05c0-.16-.02-.31-.06-.45s-.11-.27-.2-.38-.21-.2-.35-.26-.31-.1-.5-.1c-.36,0-.65.1-.85.31-.21.21-.34.5-.4.88h2.37-.01Z"/><path class="cls-8" d="M92.96,40.88v5.67h-.94c-.19,0-.32-.09-.37-.26l-.1-.4c-.11.11-.23.21-.35.3-.12.09-.25.17-.39.24s-.29.12-.45.15-.33.05-.52.05c-.31,0-.58-.05-.82-.16s-.44-.25-.6-.45c-.16-.19-.28-.42-.37-.68-.08-.26-.13-.55-.13-.87v-3.6h1.52v3.6c0,.32.07.56.22.73s.36.26.65.26c.21,0,.41-.05.6-.14.19-.09.36-.22.53-.38v-4.08h1.52v.02Z"/><path class="cls-8" d="M96.23,46.64c-.26,0-.48-.04-.68-.11-.2-.08-.36-.18-.5-.32s-.24-.31-.31-.51-.1-.42-.1-.67v-3.06h-.53c-.08,0-.15-.03-.21-.08s-.09-.13-.09-.23v-.59l.91-.17.31-1.47c.04-.17.15-.25.34-.25h.79v1.73h1.46v1.06h-1.46v2.96c0,.16.04.28.11.37s.18.14.32.14c.07,0,.14,0,.19-.02s.1-.03.13-.06c.04-.02.07-.04.1-.05.03-.02.06-.02.1-.02s.08.01.11.03.06.05.09.1l.46.73c-.21.17-.45.29-.71.37s-.54.13-.82.13h-.01Z"/><path class="cls-8" d="M102,42.05c-.04.06-.08.11-.12.13-.04.03-.1.04-.17.04s-.15-.02-.23-.05c-.08-.04-.16-.08-.26-.12s-.2-.08-.33-.12c-.12-.04-.27-.05-.43-.05-.25,0-.44.05-.57.15-.14.1-.2.23-.2.4,0,.11.04.21.12.29.08.08.18.14.31.2s.27.11.43.16.33.1.5.16.34.13.5.2c.16.08.31.17.43.29.13.12.23.25.31.42.08.16.12.36.12.59,0,.27-.05.53-.15.76s-.25.43-.44.6-.44.3-.73.4-.62.14-1,.14c-.19,0-.39-.02-.58-.05-.19-.03-.37-.08-.54-.15-.17-.06-.33-.14-.48-.22s-.28-.18-.39-.27l.35-.57c.04-.07.09-.12.15-.15.06-.04.14-.06.23-.06s.18.02.25.07c.08.05.16.1.26.15s.21.1.34.15.29.07.49.07c.15,0,.27-.02.38-.05.11-.03.19-.08.26-.13s.11-.12.15-.19c.03-.07.05-.15.05-.22,0-.12-.04-.23-.12-.31s-.18-.15-.31-.21-.27-.11-.44-.16c-.17-.05-.33-.1-.5-.16s-.34-.13-.5-.21-.31-.18-.43-.31c-.13-.12-.23-.27-.31-.45-.08-.18-.12-.4-.12-.65,0-.23.05-.46.14-.67.09-.21.23-.4.41-.56s.41-.29.68-.39c.27-.1.59-.14.95-.14.4,0,.77.07,1.1.2s.6.3.81.52l-.35.54h-.02Z"/><path class="cls-8" d="M107.51,42.15c-.04.06-.09.1-.13.13-.04.03-.11.05-.19.05-.07,0-.14-.02-.21-.06-.07-.04-.15-.09-.23-.14s-.19-.1-.31-.14c-.12-.04-.27-.06-.45-.06-.23,0-.42.04-.59.12s-.31.2-.42.35-.19.34-.24.56c-.05.22-.08.47-.08.74,0,.58.12,1.02.35,1.33.23.31.55.46.95.46.14,0,.26-.01.36-.04.1-.02.19-.05.26-.09s.14-.08.2-.12.11-.08.16-.12.1-.07.15-.09.11-.04.17-.04c.12,0,.21.04.27.13l.43.55c-.16.19-.33.34-.52.46-.18.12-.37.22-.57.29-.2.07-.4.12-.6.15-.2.03-.4.04-.6.04-.35,0-.68-.06-.99-.2-.31-.13-.58-.32-.82-.57-.23-.25-.42-.56-.56-.92s-.21-.78-.21-1.24c0-.41.06-.8.18-1.16s.3-.66.53-.92c.23-.26.53-.46.87-.61.35-.15.75-.22,1.2-.22s.81.07,1.14.21.62.34.88.6l-.4.54.02.03Z"/><path class="cls-8" d="M110.29,41.44c.11-.1.22-.18.33-.26.12-.08.24-.15.37-.2.13-.06.27-.1.42-.13.15-.03.31-.05.48-.05.31,0,.58.05.82.16s.44.25.6.45c.16.19.29.42.37.68s.12.55.12.87v3.6h-1.51v-3.6c0-.32-.07-.56-.22-.73s-.36-.26-.65-.26c-.21,0-.41.05-.6.14s-.37.22-.53.38v4.08h-1.52v-8.2h1.52v3.09-.02Z"/><path class="cls-8" d="M116.28,43.95c.05.53.2.92.45,1.17s.59.37,1,.37c.21,0,.39-.02.54-.07s.29-.1.4-.17c.12-.06.22-.12.31-.17s.19-.07.28-.07c.12,0,.21.04.27.13l.44.55c-.16.19-.34.34-.53.46-.19.12-.4.22-.6.29-.21.07-.42.12-.63.15-.21.03-.42.04-.62.04-.4,0-.77-.06-1.11-.2-.34-.13-.64-.32-.9-.58-.25-.25-.46-.57-.6-.95-.15-.38-.22-.82-.22-1.31,0-.38.06-.75.19-1.09s.31-.64.55-.89.53-.45.87-.6c.34-.15.73-.22,1.15-.22.36,0,.7.06,1,.17.31.12.57.28.79.5s.39.49.52.81c.12.32.18.69.18,1.1,0,.11,0,.21-.02.28-.01.07-.03.13-.05.18-.03.04-.06.07-.1.09s-.1.02-.17.02h-3.4,0ZM118.66,43.05c0-.16-.02-.31-.06-.45s-.11-.27-.2-.38-.21-.2-.35-.26-.31-.1-.5-.1c-.36,0-.65.1-.85.31-.21.21-.34.5-.4.88h2.37-.01Z"/><path class="cls-8" d="M128.22,40.1c-.05.08-.1.15-.16.18-.05.04-.12.06-.21.06s-.17-.03-.26-.09c-.09-.06-.2-.12-.33-.18s-.27-.13-.43-.18c-.16-.06-.35-.09-.57-.09-.38,0-.67.09-.86.26s-.29.39-.29.67c0,.18.05.32.16.44.1.12.24.22.41.3s.36.16.58.23.44.14.67.22c.23.08.45.17.67.28s.41.24.58.4.31.36.41.59.16.52.16.85c0,.36-.06.7-.19,1.02s-.31.59-.55.83c-.24.24-.53.42-.88.56s-.75.2-1.19.2c-.25,0-.51-.03-.76-.08s-.49-.12-.73-.21c-.23-.09-.45-.2-.66-.33-.21-.13-.39-.27-.54-.43l.48-.78c.04-.06.09-.11.16-.15s.14-.06.21-.06c.1,0,.2.04.31.11s.24.15.38.24.31.17.5.24.42.11.68.11c.38,0,.68-.09.89-.26.21-.18.32-.44.32-.79,0-.2-.05-.36-.16-.49-.1-.12-.24-.23-.41-.31-.17-.08-.36-.16-.58-.22s-.44-.13-.67-.2c-.23-.07-.45-.16-.67-.26s-.41-.24-.58-.41-.31-.38-.41-.63-.16-.56-.16-.93c0-.3.06-.58.18-.86s.29-.53.52-.74c.23-.22.51-.39.84-.52.33-.13.71-.2,1.14-.2.48,0,.92.07,1.33.22s.75.35,1.04.62l-.41.78h.04Z"/><path class="cls-8" d="M131.52,46.64c-.26,0-.48-.04-.68-.11-.2-.08-.36-.18-.5-.32s-.24-.31-.31-.51c-.07-.2-.1-.42-.1-.67v-3.06h-.53c-.08,0-.15-.03-.21-.08-.06-.05-.09-.13-.09-.23v-.59l.91-.17.31-1.47c.04-.17.15-.25.34-.25h.79v1.73h1.46v1.06h-1.46v2.96c0,.16.04.28.11.37s.18.14.32.14c.07,0,.14,0,.19-.02s.1-.03.13-.06c.04-.02.07-.04.1-.05.03-.02.06-.02.1-.02s.08.01.11.03.06.05.09.1l.46.73c-.21.17-.45.29-.71.37-.26.08-.54.13-.82.13h-.01Z"/><path class="cls-8" d="M135.51,39.27c0,.13-.03.25-.08.36s-.12.21-.21.29c-.09.08-.19.15-.3.2-.12.05-.24.07-.37.07-.12,0-.24-.02-.35-.07s-.21-.11-.29-.2-.15-.18-.2-.29-.07-.23-.07-.36.02-.25.07-.36.12-.21.2-.29c.08-.08.18-.15.29-.2.11-.05.23-.07.35-.07.13,0,.26.02.37.07.12.05.22.11.3.2.09.08.15.18.21.29s.08.23.08.36ZM135.33,40.88v5.67h-1.52v-5.67h1.52Z"/><path class="cls-8" d="M137.1,46.55v-4.58l-.44-.08c-.11-.02-.21-.06-.28-.12s-.11-.14-.11-.25v-.6h.83v-.37c0-.32.05-.61.15-.88.1-.26.24-.48.43-.67s.42-.32.69-.42.58-.15.92-.15c.13,0,.26,0,.38.02.12.02.24.04.36.07l-.03.75c0,.11-.06.19-.15.22s-.19.05-.3.05c-.15,0-.29.02-.42.05-.12.03-.23.09-.31.17s-.15.19-.19.32-.07.3-.07.5v.33h1.41v1.06h-1.36v4.58h-1.51Z"/><path class="cls-8" d="M142.68,46.64c-.26,0-.48-.04-.68-.11-.2-.08-.36-.18-.5-.32s-.24-.31-.31-.51c-.07-.2-.1-.42-.1-.67v-3.06h-.53c-.08,0-.15-.03-.21-.08-.06-.05-.09-.13-.09-.23v-.59l.91-.17.31-1.47c.04-.17.15-.25.34-.25h.79v1.73h1.46v1.06h-1.46v2.96c0,.16.04.28.11.37s.18.14.32.14c.07,0,.14,0,.19-.02s.1-.03.13-.06c.04-.02.07-.04.1-.05.03-.02.06-.02.1-.02s.08.01.11.03.06.05.09.1l.46.73c-.21.17-.45.29-.71.37-.26.08-.54.13-.82.13h-.01Z"/><path class="cls-8" d="M149.9,40.88v5.67h-.93c-.19,0-.32-.09-.37-.26l-.1-.4c-.11.11-.23.21-.35.3s-.25.17-.39.24-.29.12-.45.15c-.16.04-.33.05-.52.05-.31,0-.58-.05-.82-.16s-.44-.25-.6-.45c-.16-.19-.28-.42-.37-.68-.08-.26-.13-.55-.13-.87v-3.6h1.52v3.6c0,.32.07.56.22.73s.36.26.65.26c.21,0,.41-.05.6-.14s.37-.22.53-.38v-4.08h1.52v.02Z"/><path class="cls-8" d="M152.62,41.54c.11-.11.23-.21.35-.3s.25-.17.39-.24.29-.12.45-.15.33-.05.52-.05c.31,0,.58.05.82.16s.44.25.6.45c.16.19.29.42.37.68s.12.55.12.87v3.6h-1.51v-3.6c0-.32-.07-.56-.22-.73s-.36-.26-.65-.26c-.21,0-.41.05-.6.14s-.37.22-.53.38v4.08h-1.52v-5.67h.93c.19,0,.32.09.38.26l.09.4v-.02Z"/><path class="cls-8" d="M162.56,41.07v.56c0,.09-.02.16-.07.21s-.13.09-.25.12l-.46.09c.06.18.09.37.09.58,0,.28-.06.54-.17.76-.12.23-.27.42-.48.58-.2.16-.44.28-.71.37s-.57.13-.89.13c-.2,0-.39-.02-.57-.05-.15.1-.23.2-.23.31s.05.18.16.23c.1.05.24.08.41.1s.37.03.58.04c.22,0,.44.02.67.04s.45.05.67.1.41.12.58.23.31.24.41.42.16.39.16.67c0,.25-.06.5-.19.74-.12.24-.3.45-.54.64-.24.19-.53.34-.87.45s-.74.17-1.18.17-.82-.04-1.14-.12c-.32-.08-.59-.19-.8-.33s-.37-.3-.47-.48-.15-.37-.15-.56c0-.25.08-.47.23-.64.15-.18.37-.32.64-.42-.14-.08-.26-.19-.34-.32-.09-.13-.13-.3-.13-.51,0-.17.06-.35.18-.53s.31-.34.57-.47c-.29-.15-.52-.36-.69-.62s-.25-.56-.25-.9c0-.28.06-.54.17-.76.12-.23.28-.42.48-.58.21-.16.45-.28.73-.37.28-.08.58-.13.91-.13.48,0,.91.1,1.28.29h1.66v-.04ZM161.05,46.78c0-.1-.03-.18-.09-.24s-.15-.11-.25-.15-.23-.06-.37-.08-.3-.03-.46-.04c-.16,0-.33-.02-.5-.02s-.34-.02-.51-.04c-.13.08-.23.17-.32.27-.08.1-.12.22-.12.35,0,.09.02.18.06.25.04.08.11.14.21.2.1.06.23.1.39.13.16.03.36.05.61.05s.46-.02.63-.05c.17-.03.31-.08.42-.14s.18-.13.23-.22.07-.18.07-.27h0ZM159.62,43.51c.31,0,.54-.08.69-.24.15-.16.22-.36.22-.61s-.07-.46-.22-.61c-.15-.15-.38-.22-.69-.22s-.54.07-.69.22-.22.35-.22.61.07.45.22.61.38.24.68.24h.01Z"/><path class="cls-8" d="M166.49,46.55v-4.58l-.44-.08c-.11-.02-.21-.06-.28-.12-.07-.06-.11-.14-.11-.25v-.6h.82v-.37c0-.32.05-.61.15-.88.1-.26.25-.48.43-.67.19-.18.42-.32.69-.42s.58-.15.92-.15c.13,0,.26,0,.38.02s.24.04.36.07l-.03.75c0,.11-.06.19-.15.22s-.19.05-.3.05c-.15,0-.29.02-.42.05-.12.03-.23.09-.31.17s-.15.19-.19.32-.07.3-.07.5v.33h1.41v1.06h-1.36v4.58h-1.51,0Z"/><path class="cls-8" d="M175.09,40.88v5.67h-.93c-.19,0-.32-.09-.37-.26l-.1-.4c-.11.11-.23.21-.35.3s-.25.17-.39.24-.29.12-.45.15c-.16.04-.33.05-.52.05-.31,0-.58-.05-.82-.16s-.44-.25-.6-.45c-.16-.19-.28-.42-.37-.68-.08-.26-.13-.55-.13-.87v-3.6h1.52v3.6c0,.32.07.56.22.73.14.17.36.26.65.26.21,0,.41-.05.6-.14s.37-.22.53-.38v-4.08h1.52v.02ZM172.28,39.43c0,.11-.02.21-.07.31-.04.1-.1.18-.18.25-.08.07-.16.13-.26.17-.1.04-.21.06-.32.06s-.21-.02-.31-.06c-.1-.04-.18-.1-.26-.17-.07-.07-.13-.15-.18-.25-.04-.1-.07-.2-.07-.31s.02-.21.07-.31c.04-.1.1-.19.18-.26s.16-.13.26-.18.2-.06.31-.06.22.02.32.06.19.1.26.18.13.16.18.26c.04.1.07.2.07.31ZM174.56,39.43c0,.11-.02.21-.07.31-.04.1-.1.18-.18.25-.07.07-.16.13-.26.17-.1.04-.21.06-.32.06s-.21-.02-.31-.06c-.1-.04-.19-.1-.26-.17-.07-.07-.13-.15-.17-.25s-.06-.2-.06-.31.02-.21.06-.31.1-.19.17-.26.16-.13.26-.18c.1-.04.2-.06.31-.06s.22.02.32.06.19.1.26.18c.07.08.13.16.18.26.04.1.07.2.07.31Z"/><path class="cls-8" d="M177.82,41.82c.18-.32.39-.58.62-.76s.51-.28.83-.28c.26,0,.47.06.63.18l-.1,1.12c-.02.07-.05.12-.09.15-.04.03-.09.04-.16.04-.06,0-.14,0-.25-.02s-.21-.02-.31-.02c-.14,0-.26.02-.37.06s-.2.1-.29.17c-.08.07-.16.16-.23.27-.07.11-.13.23-.19.36v3.47h-1.52v-5.67h.9c.15,0,.26.03.32.08.06.05.1.15.13.29l.08.57h0Z"/><path class="cls-8" d="M75.54,52.86v2.05h2.66v1.25h-2.66v2.1h3.42v1.29h-5.08v-7.98h5.08v1.29h-3.42Z"/><path class="cls-8" d="M81.34,54.54c.11-.11.23-.21.35-.3.12-.09.25-.17.39-.24.14-.07.29-.12.45-.15.16-.04.33-.05.52-.05.31,0,.58.05.82.16s.44.25.6.45c.16.19.29.42.37.68.08.26.12.55.12.87v3.6h-1.51v-3.6c0-.32-.07-.56-.22-.73s-.36-.26-.65-.26c-.21,0-.41.05-.6.14s-.37.22-.53.38v4.08h-1.52v-5.67h.94c.19,0,.32.09.38.26l.09.4v-.02Z"/><path class="cls-8" d="M91.28,54.07v.56c0,.09-.02.16-.07.21s-.13.09-.25.12l-.46.09c.06.18.09.37.09.58,0,.28-.06.54-.17.76-.12.23-.27.42-.48.58-.2.16-.44.28-.72.37-.27.09-.57.13-.89.13-.2,0-.39-.02-.57-.05-.15.1-.23.2-.23.31s.05.18.16.23c.1.05.24.08.41.1.17.02.36.03.58.04.22,0,.44.02.67.04.23.02.45.05.67.1s.41.12.58.23.31.24.41.42.16.39.16.67c0,.25-.06.5-.19.74-.12.24-.31.45-.54.64-.24.19-.53.34-.87.45-.34.11-.74.17-1.18.17s-.81-.04-1.14-.12-.59-.19-.8-.33c-.21-.14-.37-.3-.47-.48s-.15-.37-.15-.56c0-.25.08-.47.23-.64.15-.18.37-.32.64-.42-.14-.08-.26-.19-.34-.32-.09-.13-.13-.3-.13-.51,0-.17.06-.35.18-.53.12-.19.31-.34.57-.47-.29-.15-.52-.36-.69-.62-.17-.26-.25-.56-.25-.9,0-.28.06-.54.17-.76.12-.23.28-.42.48-.58.21-.16.45-.28.73-.37s.58-.13.91-.13c.48,0,.91.1,1.28.29h1.66v-.04ZM89.77,59.78c0-.1-.03-.18-.09-.24s-.15-.11-.25-.15-.23-.06-.37-.08-.3-.03-.46-.04c-.16,0-.33-.02-.5-.02s-.34-.02-.51-.04c-.13.08-.23.17-.32.27s-.12.22-.12.35c0,.09.02.18.06.25s.11.14.21.2.23.1.39.13c.16.03.36.05.6.05s.46-.02.63-.05.31-.08.42-.14.18-.13.23-.22c.05-.08.07-.18.07-.27h.01ZM88.34,56.51c.31,0,.54-.08.69-.24s.22-.36.22-.61-.07-.46-.22-.61-.38-.22-.69-.22-.54.07-.69.22-.22.35-.22.61.07.45.22.61.38.24.68.24h.01Z"/><path class="cls-8" d="M92,54.67c.33-.3.7-.53,1.11-.67s.84-.22,1.31-.22c.34,0,.64.05.9.16.27.11.49.26.68.46s.33.43.43.7.15.57.15.89v3.56h-.69c-.14,0-.25-.02-.33-.06s-.14-.12-.18-.25l-.12-.36c-.14.12-.28.23-.42.33-.13.1-.27.18-.42.24-.14.06-.3.11-.46.15-.16.03-.35.05-.55.05-.25,0-.48-.03-.68-.1-.21-.07-.38-.16-.53-.29s-.26-.29-.34-.49-.12-.42-.12-.67c0-.21.05-.42.16-.63.11-.21.29-.4.55-.57s.6-.31,1.03-.42.97-.18,1.62-.19v-.29c0-.36-.08-.62-.23-.78-.15-.17-.37-.25-.65-.25-.21,0-.38.02-.52.07s-.26.1-.37.16c-.1.06-.2.11-.29.16-.09.05-.2.07-.32.07-.11,0-.2-.03-.27-.08-.07-.05-.13-.12-.18-.19l-.27-.48h0ZM95.09,57.18c-.37.02-.68.05-.92.1-.25.05-.44.11-.59.18-.14.07-.25.16-.31.25s-.09.2-.09.31c0,.22.06.38.18.47s.29.14.51.14c.25,0,.47-.04.66-.13s.37-.23.55-.42v-.9Z"/><path class="cls-8" d="M102.87,54.07v.56c0,.09-.02.16-.07.21s-.13.09-.25.12l-.46.09c.06.18.09.37.09.58,0,.28-.06.54-.17.76-.12.23-.27.42-.48.58-.2.16-.44.28-.72.37-.27.09-.57.13-.89.13-.2,0-.39-.02-.57-.05-.15.1-.23.2-.23.31s.05.18.16.23c.1.05.24.08.41.1.17.02.36.03.58.04.22,0,.44.02.67.04.23.02.45.05.67.1s.41.12.58.23.31.24.41.42.16.39.16.67c0,.25-.06.5-.19.74-.12.24-.31.45-.54.64-.24.19-.53.34-.87.45-.34.11-.74.17-1.18.17s-.81-.04-1.14-.12-.59-.19-.8-.33c-.21-.14-.37-.3-.47-.48s-.15-.37-.15-.56c0-.25.08-.47.23-.64.15-.18.37-.32.64-.42-.14-.08-.26-.19-.34-.32-.09-.13-.13-.3-.13-.51,0-.17.06-.35.18-.53.12-.19.31-.34.57-.47-.29-.15-.52-.36-.69-.62-.17-.26-.25-.56-.25-.9,0-.28.06-.54.17-.76.12-.23.28-.42.48-.58.21-.16.45-.28.73-.37s.58-.13.91-.13c.48,0,.91.1,1.28.29h1.66v-.04ZM101.36,59.78c0-.1-.03-.18-.09-.24s-.15-.11-.25-.15-.23-.06-.37-.08-.3-.03-.46-.04c-.16,0-.33-.02-.5-.02s-.34-.02-.51-.04c-.13.08-.23.17-.32.27s-.12.22-.12.35c0,.09.02.18.06.25s.11.14.21.2.23.1.39.13c.16.03.36.05.6.05s.46-.02.63-.05.31-.08.42-.14.18-.13.23-.22c.05-.08.07-.18.07-.27h.01ZM99.93,56.51c.31,0,.54-.08.69-.24s.22-.36.22-.61-.07-.46-.22-.61-.38-.22-.69-.22-.54.07-.69.22-.22.35-.22.61.07.45.22.61.38.24.68.24h.01Z"/><path class="cls-8" d="M104.82,56.95c.05.53.2.92.45,1.17s.59.37,1,.37c.21,0,.39-.02.54-.07s.29-.1.4-.17c.12-.06.22-.12.31-.17s.19-.07.28-.07c.12,0,.21.04.27.13l.44.55c-.16.19-.34.34-.53.46s-.4.22-.6.29c-.21.07-.42.12-.63.15-.21.03-.42.04-.62.04-.4,0-.77-.06-1.11-.2-.34-.13-.64-.32-.9-.58s-.46-.57-.6-.95c-.15-.38-.22-.82-.22-1.31,0-.38.06-.75.19-1.09s.31-.64.55-.89.53-.45.87-.6c.34-.15.73-.22,1.15-.22.36,0,.7.06,1,.17.31.12.57.28.79.5s.39.49.52.81c.12.32.18.69.18,1.1,0,.11,0,.21-.02.28-.01.07-.03.13-.05.18-.03.04-.06.07-.1.09s-.1.02-.17.02h-3.4,0ZM107.21,56.05c0-.16-.02-.31-.06-.45s-.11-.27-.2-.38-.21-.2-.35-.26c-.14-.06-.31-.1-.5-.1-.36,0-.65.1-.85.31-.21.21-.34.5-.4.88h2.37-.01Z"/><path class="cls-8" d="M109.56,59.55v-5.67h.94c.19,0,.32.09.38.26l.09.37c.1-.1.2-.2.31-.29.1-.09.22-.16.34-.23s.25-.11.39-.15.29-.05.46-.05c.35,0,.64.09.86.28.23.19.4.43.52.74.09-.18.2-.33.34-.46.13-.13.28-.24.44-.32.16-.08.33-.14.51-.18s.36-.06.54-.06c.32,0,.6.05.85.14.25.1.45.24.62.42.17.19.29.41.38.68s.13.57.13.91v3.6h-1.52v-3.6c0-.66-.28-1-.85-1-.13,0-.25.02-.35.06-.11.04-.2.11-.29.19-.08.08-.15.19-.19.31-.05.12-.07.27-.07.43v3.6h-1.52v-3.6c0-.36-.07-.62-.21-.77s-.35-.23-.62-.23c-.18,0-.34.04-.5.12-.16.08-.3.2-.44.34v4.13h-1.52l-.02.03Z"/><path class="cls-8" d="M120.11,56.95c.05.53.2.92.45,1.17s.59.37,1,.37c.21,0,.39-.02.54-.07s.29-.1.4-.17c.12-.06.22-.12.31-.17s.19-.07.28-.07c.12,0,.21.04.27.13l.44.55c-.16.19-.34.34-.53.46s-.4.22-.6.29c-.21.07-.42.12-.63.15-.21.03-.42.04-.62.04-.4,0-.77-.06-1.11-.2-.34-.13-.64-.32-.9-.58s-.46-.57-.6-.95c-.15-.38-.22-.82-.22-1.31,0-.38.06-.75.19-1.09s.31-.64.55-.89.53-.45.87-.6c.34-.15.73-.22,1.15-.22.36,0,.7.06,1,.17.31.12.57.28.79.5s.39.49.52.81c.12.32.18.69.18,1.1,0,.11,0,.21-.02.28-.01.07-.03.13-.05.18-.03.04-.06.07-.1.09s-.1.02-.17.02h-3.4,0ZM122.49,56.05c0-.16-.02-.31-.06-.45s-.11-.27-.2-.38-.21-.2-.35-.26c-.14-.06-.31-.1-.5-.1-.36,0-.65.1-.85.31-.21.21-.34.5-.4.88h2.37-.01Z"/><path class="cls-8" d="M126.26,54.54c.11-.11.23-.21.35-.3.12-.09.25-.17.39-.24.14-.07.29-.12.45-.15.16-.04.33-.05.52-.05.31,0,.58.05.82.16s.44.25.6.45c.16.19.29.42.37.68.08.26.12.55.12.87v3.6h-1.51v-3.6c0-.32-.07-.56-.22-.73-.15-.17-.36-.26-.65-.26-.21,0-.41.05-.6.14s-.37.22-.53.38v4.08h-1.52v-5.67h.94c.19,0,.32.09.38.26l.09.4v-.02Z"/><path class="cls-8" d="M133.02,59.64c-.26,0-.48-.04-.68-.11-.2-.08-.36-.18-.5-.32s-.24-.31-.31-.51c-.07-.2-.1-.42-.1-.67v-3.06h-.53c-.08,0-.15-.03-.21-.08-.06-.05-.09-.13-.09-.23v-.59l.91-.17.31-1.47c.04-.17.15-.25.34-.25h.79v1.73h1.46v1.06h-1.46v2.96c0,.16.04.28.11.37s.18.14.32.14c.07,0,.14,0,.19-.02s.1-.03.13-.06c.04-.02.07-.04.1-.05.03-.02.06-.02.1-.02s.08,0,.11.03.06.05.09.1l.46.73c-.21.17-.45.29-.71.37-.26.08-.54.13-.82.13h-.01Z"/><path class="cls-8" d="M142.91,53.88v5.67h-.94c-.19,0-.32-.09-.37-.26l-.1-.4c-.11.11-.23.21-.35.3-.12.09-.25.17-.39.24-.14.07-.29.12-.45.15s-.33.05-.52.05c-.31,0-.58-.05-.82-.16s-.44-.25-.6-.45c-.16-.19-.28-.42-.37-.68-.08-.26-.13-.55-.13-.87v-3.6h1.52v3.6c0,.32.07.56.22.73s.36.26.65.26c.21,0,.41-.05.6-.14s.36-.22.53-.38v-4.08h1.52v.02Z"/><path class="cls-8" d="M145.63,54.54c.11-.11.23-.21.35-.3.12-.09.25-.17.39-.24.14-.07.29-.12.45-.15.16-.04.33-.05.52-.05.31,0,.58.05.82.16s.44.25.6.45c.16.19.29.42.37.68.08.26.12.55.12.87v3.6h-1.51v-3.6c0-.32-.07-.56-.22-.73s-.36-.26-.65-.26c-.21,0-.41.05-.6.14s-.37.22-.53.38v4.08h-1.52v-5.67h.94c.19,0,.32.09.38.26l.09.4v-.02Z"/><path class="cls-8" d="M155.54,51.35v8.2h-.93c-.19,0-.32-.09-.37-.26l-.13-.49c-.11.12-.23.24-.36.34s-.26.19-.41.27c-.15.08-.3.13-.47.17-.17.04-.35.06-.55.06-.3,0-.58-.06-.84-.19-.25-.13-.47-.32-.66-.56s-.33-.55-.43-.91-.15-.77-.15-1.23c0-.42.06-.81.17-1.18.12-.36.28-.68.49-.94s.47-.47.77-.62c.3-.15.63-.23,1-.23.31,0,.57.05.78.14.21.09.4.22.58.37v-2.93h1.52-.01ZM154.02,55.36c-.14-.17-.3-.28-.46-.35s-.34-.1-.53-.1-.35.04-.5.1c-.15.07-.28.18-.39.33s-.19.34-.25.57-.09.51-.09.83.02.58.07.8c.05.22.12.4.21.53s.2.23.33.29.27.09.43.09c.27,0,.49-.05.67-.16s.35-.26.51-.45v-2.49h0Z"/><path class="cls-8" d="M161.39,52.86v2.05h2.66v1.25h-2.66v2.1h3.42v1.29h-5.08v-7.98h5.08v1.29h-3.42Z"/><path class="cls-8" d="M167.39,54.44c.11-.1.22-.18.33-.26.12-.08.24-.15.37-.2.13-.06.27-.1.42-.13.15-.03.31-.05.48-.05.31,0,.58.05.82.16s.44.25.6.45c.16.19.29.42.37.68.08.26.12.55.12.87v3.6h-1.51v-3.6c0-.32-.07-.56-.22-.73s-.36-.26-.65-.26c-.21,0-.41.05-.6.14s-.37.22-.53.38v4.08h-1.52v-8.2h1.52v3.09-.02Z"/><path class="cls-8" d="M173.59,54.82c.18-.32.39-.58.62-.76s.51-.28.83-.28c.26,0,.47.06.63.18l-.1,1.12c-.02.07-.05.12-.09.15-.04.03-.09.04-.16.04-.06,0-.14,0-.25-.02s-.21-.02-.31-.02c-.14,0-.26.02-.37.06s-.2.1-.29.17c-.08.07-.16.16-.23.27-.07.11-.13.23-.19.36v3.47h-1.52v-5.67h.9c.15,0,.26.03.32.08.06.05.1.15.13.29l.08.57h0Z"/><path class="cls-8" d="M177.45,56.95c.05.53.2.92.45,1.17s.59.37,1,.37c.21,0,.39-.02.54-.07s.29-.1.4-.17.22-.12.31-.17.19-.07.28-.07c.12,0,.21.04.28.13l.44.55c-.16.19-.34.34-.53.46s-.4.22-.6.29c-.21.07-.42.12-.63.15-.21.03-.42.04-.62.04-.4,0-.77-.06-1.11-.2-.34-.13-.64-.32-.9-.58-.25-.25-.46-.57-.6-.95-.15-.38-.22-.82-.22-1.31,0-.38.06-.75.19-1.09s.31-.64.55-.89.53-.45.87-.6.73-.22,1.16-.22c.36,0,.7.06,1,.17.31.12.57.28.79.5.22.22.39.49.52.81.12.32.18.69.18,1.1,0,.11,0,.21-.02.28,0,.07-.03.13-.06.18-.03.04-.06.07-.1.09-.04.02-.1.02-.17.02h-3.4,0ZM179.84,56.05c0-.16-.02-.31-.06-.45s-.11-.27-.2-.38-.21-.2-.35-.26-.31-.1-.5-.1c-.36,0-.65.1-.85.31-.21.21-.34.5-.4.88h2.36Z"/><path class="cls-8" d="M183.6,54.54c.11-.11.23-.21.35-.3s.25-.17.39-.24c.14-.07.29-.12.45-.15s.33-.05.52-.05c.31,0,.58.05.82.16s.44.25.6.45c.16.19.29.42.37.68.08.26.12.55.12.87v3.6h-1.51v-3.6c0-.32-.07-.56-.22-.73s-.36-.26-.65-.26c-.21,0-.41.05-.6.14s-.37.22-.53.38v4.08h-1.52v-5.67h.93c.19,0,.32.09.38.26l.09.4v-.02Z"/><path class="cls-8" d="M188.36,54.67c.33-.3.7-.53,1.11-.67.4-.15.84-.22,1.31-.22.34,0,.64.05.9.16.27.11.49.26.68.46.19.2.33.43.43.7.1.27.15.57.15.89v3.56h-.69c-.14,0-.25-.02-.33-.06s-.14-.12-.18-.25l-.12-.36c-.14.12-.28.23-.42.33-.13.1-.27.18-.42.24-.14.06-.3.11-.46.15-.16.03-.35.05-.55.05-.25,0-.48-.03-.68-.1-.21-.07-.38-.16-.53-.29s-.26-.29-.34-.49c-.08-.19-.12-.42-.12-.67,0-.21.05-.42.16-.63s.29-.4.55-.57c.26-.17.6-.31,1.03-.42s.97-.18,1.62-.19v-.29c0-.36-.08-.62-.23-.78s-.37-.25-.65-.25c-.21,0-.38.02-.52.07s-.26.1-.37.16c-.1.06-.2.11-.29.16s-.2.07-.32.07c-.11,0-.2-.03-.27-.08-.07-.05-.13-.12-.18-.19l-.27-.48h0ZM191.45,57.18c-.37.02-.68.05-.92.1-.25.05-.44.11-.59.18s-.25.16-.31.25-.09.2-.09.31c0,.22.06.38.18.47s.29.14.51.14c.25,0,.47-.04.66-.13.18-.09.37-.23.55-.42v-.9Z"/><path class="cls-8" d="M194.17,59.55v-5.67h.93c.19,0,.32.09.38.26l.09.37c.1-.1.2-.2.31-.29.1-.09.22-.16.34-.23s.25-.11.39-.15.29-.05.46-.05c.35,0,.64.09.86.28.23.19.4.43.52.74.09-.18.2-.33.34-.46.13-.13.28-.24.44-.32.16-.08.33-.14.51-.18s.36-.06.54-.06c.32,0,.6.05.85.14.25.1.45.24.62.42s.29.41.38.68.13.57.13.91v3.6h-1.52v-3.6c0-.66-.28-1-.85-1-.13,0-.25.02-.35.06s-.2.11-.29.19c-.08.08-.15.19-.19.31-.05.12-.07.27-.07.43v3.6h-1.52v-3.6c0-.36-.07-.62-.21-.77s-.35-.23-.62-.23c-.18,0-.34.04-.5.12-.16.08-.3.2-.44.34v4.13h-1.52v.03Z"/><path class="cls-8" d="M205.38,59.64c-.26,0-.48-.04-.68-.11-.2-.08-.37-.18-.5-.32-.14-.14-.24-.31-.31-.51-.07-.2-.1-.42-.1-.67v-3.06h-.53c-.08,0-.15-.03-.21-.08-.06-.05-.08-.13-.08-.23v-.59l.91-.17.31-1.47c.04-.17.15-.25.33-.25h.79v1.73h1.46v1.06h-1.46v2.96c0,.16.04.28.11.37s.18.14.32.14c.07,0,.14,0,.19-.02s.09-.03.13-.06c.04-.02.07-.04.1-.05.03-.02.06-.02.1-.02s.08,0,.11.03.06.05.09.1l.46.73c-.21.17-.45.29-.71.37-.26.08-.54.13-.82.13h-.01Z"/><circle class="cls-11" cx="38.78" cy="49.94" r="24.45"/><path class="cls-10" d="M55.9,42.52c-.52-.64-2.06-1.21-4.11-1.51-1.7-.25-4.51-.43-8.27.1-1.22.17-2.49.41-3.76.71-11.27,2.63-12.86,12.05-13.06,13.92-.25,2.28-.2,5.31,2.35,8.55,2.62,3.16,5.58,3.83,7.86,4.06.46.05.94.07,1.42.07.73,0,1.47-.05,2.2-.15,3.24-.46,9.21-2.33,12.71-9.8,4.3-9.18,3.45-14.98,2.67-15.94h0ZM55.35,47.24c-.17,2.2-.86,5.85-3.15,10.73-3.27,6.98-8.82,8.73-11.84,9.16-1.13.16-2.29.19-3.35.08-2.06-.21-4.74-.81-7.09-3.64-2.29-2.91-2.33-5.65-2.11-7.71.19-1.73,1.66-10.48,12.19-12.94,1.25-.29,2.48-.52,3.66-.69,1.59-.22,3.14-.34,4.59-.34,4.01,0,6.38.87,6.75,1.34.13.16.53,1.51.33,4.01h.02Z"/><path class="cls-9" d="M48.57,35.81c-.97-.66-3.47-.37-4.21-.26-2.41.34-6.35,1.36-11.44,4.31-10.02,5.81-8.77,15.29-8.42,17.13.43,2.25,1.36,5.14,4.75,7.49,1.91,1.26,3.88,1.87,6.02,1.87.57,0,1.16-.04,1.76-.13.3-.04.61-.09.92-.16,1.84-.37,11.09-2.77,12.73-14.23,1.43-10.04-1.08-15.33-2.1-16.02h0ZM49.55,51.68c-1.53,10.7-10.12,12.93-11.82,13.27-.29.06-.58.11-.86.14-2.6.37-4.82-.13-6.99-1.56-3.04-2.11-3.88-4.72-4.27-6.76-.33-1.71-1.48-10.51,7.88-15.94,4.93-2.86,8.72-3.85,11.02-4.17.67-.09,1.33-.15,1.9-.15.88,0,1.36.12,1.52.22.17.12.95,1.29,1.49,3.74.48,2.15.89,5.84.13,11.18v.03Z"/><path class="cls-8" d="M46.31,46.25c-1.57-10.02-5.51-14.35-6.7-14.71-.27-.08-.61-.09-1.04-.03-2.07.29-7.09,2.41-12.73,8.48-7.88,8.48-3.92,17.19-3.05,18.84,1.07,2.03,2.8,4.51,6.73,5.77,1.13.33,2.2.49,3.26.49.47,0,.94-.03,1.41-.1,1.35-.19,2.66-.64,4.11-1.42,1.65-.89,9.8-5.88,8.01-17.32ZM37.76,62.57c-1.33.72-2.52,1.13-3.73,1.3-1.35.19-2.72.07-4.18-.35-3.53-1.13-5.09-3.38-6.06-5.22-.81-1.54-4.49-9.62,2.88-17.54,5.42-5.84,10.13-7.86,12.06-8.13.13-.02.25-.03.35-.03.11,0,.17.01.21.02.2.06,1.28.96,2.52,3.14,1.09,1.92,2.56,5.33,3.39,10.66,1.67,10.69-5.89,15.33-7.43,16.15h0Z"/><line class="cls-7" x1="73.88" y1="29.72" x2="125.2" y2="29.72"/><text class="cls-3" transform="translate(73.71 26.23)"><tspan class="cls-4" x="0" y="0">G</tspan><tspan class="cls-5" x="5.02" y="0">e</tspan><tspan class="cls-1" x="8.72" y="0">f</tspan><tspan x="11.21" y="0">ö</tspan><tspan class="cls-6" x="15.28" y="0">r</tspan><tspan x="17.89" y="0">dert du</tspan><tspan class="cls-2" x="40.67" y="0">r</tspan><tspan x="43.28" y="0">ch</tspan></text></svg>