<svg width="790" height="386" viewBox="0 0 790 386" fill="none" xmlns="http://www.w3.org/2000/svg">
<path d="M118.07 222.592C118.07 222.592 118.07 222.592 116.685 225.753C115.055 229.471 112.189 232.353 108.853 234.746C105.517 237.145 101.298 238.925 96.2074 240.088C89.3594 241.653 82.8085 241.496 76.5634 239.603C70.3139 237.717 64.8773 234.226 60.2662 229.132C55.6481 224.034 52.3898 217.429 50.4776 209.308C48.7606 202.016 48.2576 194.899 48.9643 187.962C49.6709 181.026 51.5611 174.564 54.6391 168.569C57.7198 162.586 62.0504 157.461 67.6337 153.206C73.2112 148.951 80.0767 145.892 88.2242 144.03C94.9818 142.486 101.32 142.17 107.243 143.074C113.161 143.98 118.398 146.121 122.952 149.503C127.498 152.881 130.961 157.522 133.327 163.422L111.826 172.805C110.103 168.394 107.58 165.317 104.242 163.581C100.904 161.845 96.8277 161.527 92.0194 162.626C88.1321 163.514 84.7939 165.192 82.0092 167.653C79.2188 170.114 77.0599 173.159 75.5229 176.772C73.9815 180.392 73.0911 184.373 72.843 188.705C72.595 193.038 73.0106 197.483 74.084 202.042C75.2007 206.785 76.9068 210.718 79.2038 213.847C81.5006 216.977 84.349 219.135 87.7488 220.324C91.1555 221.516 95.0766 221.605 99.5232 220.589C103.038 219.786 105.966 218.542 108.301 216.853C110.632 215.17 112.403 213.158 113.607 210.813C114.813 208.472 115.529 205.927 115.765 203.187L116.164 199.922L94.2239 204.936L94.1618 188.514L134.99 179.184L134.107 230.131L118.276 233.749L118.07 222.592Z" fill="black"/>
<path d="M227.74 158.276C229.768 153.008 230.007 147.094 228.46 140.526C226.549 132.41 222.31 126.721 215.738 123.466C209.166 120.21 201.16 119.664 191.719 121.822L152.422 130.802L152.436 225.942L175.902 220.579L175.906 186.991L192.009 183.311L211.729 212.392L235.889 206.871L212.902 174.738C214.525 173.777 216.229 172.895 217.67 171.751C222.358 168.04 225.712 163.549 227.74 158.276ZM175.91 144.176L190.075 140.939C193.872 140.071 197.156 140.159 199.945 141.206C202.722 142.254 204.537 144.55 205.375 148.106C205.976 150.661 205.879 153.159 205.09 155.598C204.295 158.037 202.811 160.13 200.638 161.876C198.465 163.622 195.571 164.911 191.961 165.737L175.907 169.405L175.91 144.176Z" fill="black"/>
<path d="M289.12 196.149C279.95 198.245 271.93 198.347 265.043 196.46C258.162 194.572 252.785 190.803 248.918 185.152C245.051 179.502 243.12 172.112 243.114 162.98L243.237 110.049L267.121 104.591L267.358 160.901C267.441 165.399 268.311 168.995 269.971 171.695C271.63 174.39 273.907 176.198 276.809 177.118C279.707 178.046 283.054 178.073 286.851 177.205C291.942 176.042 295.571 173.629 297.732 169.961C299.888 166.295 300.932 161.399 300.857 155.263L300.863 96.8799L324.605 91.4542L324.624 150.553C324.593 162.861 321.766 172.828 316.149 180.458C310.532 188.083 301.522 193.315 289.12 196.149ZM268.799 97.4324C265.556 98.1736 262.779 98.0632 260.452 97.1052C258.13 96.1459 256.626 94.2079 255.937 91.2856C254.929 87.0052 255.391 83.5796 257.326 81.0258C259.261 78.4719 262.217 76.7348 266.2 75.8246C269.437 75.0847 272.22 75.1938 274.542 76.1531C276.863 77.1124 278.373 79.0491 279.06 81.9658C280.092 86.3465 279.634 89.7887 277.688 92.2981C275.744 94.8129 272.777 96.5234 268.799 97.4324ZM299.762 90.3566C296.434 91.1171 293.601 91.0197 291.279 90.0604C288.957 89.101 287.453 87.163 286.765 84.2408C285.757 79.9603 286.218 76.5348 288.154 73.9809C290.089 71.427 293.044 69.69 297.027 68.7797C300.361 68.0179 303.16 68.1231 305.442 69.0915C307.719 70.0611 309.201 72.0043 309.888 74.921C310.919 79.3017 310.456 82.7451 308.516 85.2533C306.566 87.7694 303.655 89.467 299.762 90.3566Z" fill="black"/>
<path d="M342.808 182.437L342.793 87.2978L368.343 81.4589L396.562 127.339L404.346 141.127L404.482 141.096L403.789 121.364L403.894 73.3346L424.862 68.543L424.871 163.684L399.739 169.427L371.158 124.492L363.38 110.702L363.097 110.766L363.88 129.616L363.917 177.613L342.808 182.437Z" fill="black"/>
<path d="M444.867 159.114L444.852 63.9746L516.225 47.6641L516.067 66.8694L468.713 77.6911L468.731 97.0089L506.078 88.474L506.082 106.493L468.729 115.029L468.771 134.476L517.65 123.306L517.629 142.486L444.867 159.114Z" fill="black"/>
<path d="M222.619 336.927C215.765 338.493 209.681 338.751 204.364 337.714C199.045 336.671 194.634 334.6 191.126 331.512C187.617 328.419 185.116 324.521 183.616 319.819C182.121 315.116 181.766 309.889 182.56 304.135L206.077 297.752C205.314 303.211 205.414 307.582 206.384 310.868C207.356 314.159 209.003 316.399 211.333 317.597C213.663 318.795 216.54 319 219.97 318.216C224.32 317.222 227.169 315.034 228.522 311.651C229.868 308.264 230.522 302.976 230.488 295.775L230.366 238.717L254.255 233.258L254.365 294.641C254.432 301.548 253.53 307.86 251.653 313.568C249.779 319.287 246.532 324.135 241.91 328.125C237.288 332.114 230.857 335.044 222.619 336.927Z" fill="black"/>
<path d="M316.524 315.613C307.353 317.709 299.333 317.811 292.447 315.924C285.565 314.036 280.188 310.267 276.321 304.617C272.454 298.966 270.524 291.576 270.517 282.445L270.641 229.513L294.524 224.055L294.761 280.365C294.844 284.863 295.714 288.459 297.374 291.159C299.033 293.854 301.311 295.662 304.213 296.583C307.11 297.51 310.457 297.537 314.254 296.669C319.345 295.506 322.974 293.093 325.136 289.426C327.291 285.76 328.335 280.864 328.26 274.728L328.267 216.344L352.009 210.918L352.028 270.018C351.996 282.325 349.169 292.292 343.553 299.922C337.935 307.547 328.926 312.779 316.524 315.613Z" fill="black"/>
<path d="M469.496 279.212L469.481 184.073L540.854 167.762L540.697 186.968L493.343 197.789L493.36 217.107L530.708 208.572L530.711 226.591L493.358 235.127L493.4 254.575L542.28 243.404L542.259 262.584L469.496 279.212Z" fill="black"/>
<path d="M556.418 259.349L556.404 164.209L581.954 158.37L610.173 204.25L617.957 218.039L618.093 218.008L617.4 198.275L617.504 150.246L638.472 145.454L638.481 240.595L613.349 246.338L584.769 201.403L576.991 187.613L576.708 187.678L577.491 206.528L577.527 254.525L556.418 259.349Z" fill="black"/>
<path d="M658.477 236.025L658.463 140.886L690.815 133.492C699.517 131.504 707.171 131.391 713.782 133.142C720.389 134.905 725.878 138.214 730.244 143.076C734.606 147.945 737.651 154.024 739.368 161.316C741.237 169.254 741.78 176.743 741 183.796C740.224 190.843 738.166 197.226 734.826 202.94C731.491 208.652 726.953 213.531 721.226 217.58C715.498 221.628 708.651 224.559 700.69 226.379L658.477 236.025ZM682.337 211.832L695.671 208.784C700.299 207.727 704.137 205.794 707.178 202.981C710.226 200.173 712.503 196.796 714.014 192.843C715.52 188.898 716.358 184.694 716.528 180.232C716.7 175.776 716.265 171.353 715.235 166.978C714.312 163.059 712.839 159.812 710.824 157.246C708.803 154.681 706.266 152.909 703.206 151.924C700.146 150.94 696.534 150.927 692.365 151.88L682.369 154.164L682.337 211.832Z" fill="black"/>
<path d="M435.129 275.863C435.129 275.863 435.129 275.863 433.744 279.024C432.115 282.742 429.249 285.624 425.912 288.017C422.577 290.416 418.358 292.195 413.267 293.358C406.419 294.923 399.868 294.766 393.623 292.873C387.373 290.987 381.937 287.496 377.326 282.403C372.708 277.305 369.449 270.7 367.537 262.578C365.82 255.287 365.317 248.169 366.024 241.233C366.731 234.296 368.621 227.834 371.699 221.84C374.779 215.857 379.11 210.732 384.693 206.476C390.271 202.222 397.136 199.163 405.284 197.301C412.041 195.757 418.38 195.44 424.303 196.345C430.22 197.251 435.458 199.392 440.011 202.774C444.558 206.152 448.02 210.792 450.386 216.692L428.886 226.075C427.163 221.665 424.64 218.587 421.301 216.851C417.963 215.115 413.887 214.797 409.079 215.896C405.192 216.785 401.853 218.463 399.069 220.923C396.278 223.385 394.119 226.43 392.582 230.043C391.041 233.662 390.151 237.643 389.903 241.976C389.655 246.309 390.07 250.754 391.144 255.313C392.26 260.055 393.966 263.988 396.263 267.118C398.56 270.247 401.408 272.406 404.808 273.594C408.215 274.787 412.136 274.876 416.583 273.86C420.097 273.057 423.025 271.813 425.361 270.123C427.692 268.441 429.463 266.429 430.667 264.083C431.872 261.743 432.589 259.198 432.825 256.457L433.223 253.193L411.283 258.207L411.221 241.785L452.05 232.455L451.167 283.401L435.335 287.019L435.129 275.863Z" fill="black"/>
</svg>
