<svg xmlns="http://www.w3.org/2000/svg" width="125" height="38.157" viewBox="0 0 125 38.157"><g transform="translate(-50.2)"><path d="M178.488,11.689c0,12.461-13.94,12.655-13.94,12.655H160.87V38.157H144.8V0h19.748s13.94.193,13.94,12.655v-.966ZM160.87,16.615a24.582,24.582,0,0,1,5.518-3.284,3.462,3.462,0,0,0,1.646-4.25c-2.227-4.347-7.067-.58-7.067-.58s-4.84-3.864-7.164.58a3.462,3.462,0,0,0,1.646,4.25c-.1,0,3.679,1.642,5.421,3.284Z" transform="translate(-3.288)" fill="#572381"/><path d="M58.5,19.7Z" transform="translate(-0.265 -0.67)" fill="#fa3292"/><path d="M82,19.7Z" transform="translate(-1.081 -0.67)" fill="#fa3292"/><path d="M124.4,19.7Z" transform="translate(-2.523 -0.67)"/><path d="M110.97,38.726V18.3H94.9V38.726Z" transform="translate(-1.534 -0.666)" fill="#009ee0"/><path d="M103.2,19.7Z" transform="translate(-1.802 -0.67)" fill="#52a5bd"/><path d="M72.949,0V12.848H66.173V0H50.2V38.06H66.27V24.053h6.776V38.06h16.07V0Z" transform="translate(0)" fill="#e2007a"/><path d="M70.6,19.1Z" transform="translate(-0.652 -0.649)" fill="#fa3292"/><path d="M103.037,16.854a29.982,29.982,0,0,1,6-3.582,3.81,3.81,0,0,0,1.743-4.647c-2.42-4.743-7.744-.581-7.744-.581s-5.228-4.163-7.744.581a3.8,3.8,0,0,0,1.742,4.647,29.983,29.983,0,0,1,6,3.582Z" transform="translate(-1.539 -0.221)" fill="#009ee0"/><path d="M149.788,11.689c0,12.461-13.94,12.655-13.94,12.655H132.17V38.157H116.1V0h19.748s13.94.193,13.94,12.655v-.966ZM132.17,16.615a24.581,24.581,0,0,1,5.518-3.284,3.363,3.363,0,0,0,1.549-4.25c-2.227-4.347-7.067-.58-7.067-.58s-4.84-3.864-7.067.58a3.462,3.462,0,0,0,1.646,4.25c-.1,0,3.679,1.642,5.421,3.284Z" transform="translate(-2.291)" fill="#eb690b"/></g></svg>