<?xml version="1.0" encoding="UTF-8" standalone="no"?><!DOCTYPE svg PUBLIC "-//W3C//DTD SVG 1.1//EN" "http://www.w3.org/Graphics/SVG/1.1/DTD/svg11.dtd"><svg width="100%" height="100%" viewBox="0 0 235 135" version="1.1" xmlns="http://www.w3.org/2000/svg" xmlns:xlink="http://www.w3.org/1999/xlink" xml:space="preserve" xmlns:serif="http://www.serif.com/" style="fill-rule:evenodd;clip-rule:evenodd;stroke-linejoin:round;stroke-miterlimit:2;"><g><g><path d="M67.28,50.545c0,21.849 14.257,40.402 34.071,47.054c-10.215,-10.79 -12.904,-24.104 -12.904,-38.215c-0,-23.993 25.346,-27.459 28.042,-36.523c0.944,-4.265 0.539,-15.062 0.809,-15.329c0.061,-0.06 0.101,4.931 0.127,12.685c0.026,-7.754 0.066,-12.745 0.127,-12.685c0.27,0.267 -0.134,11.064 0.809,15.329c2.697,9.064 28.043,12.53 28.043,36.523c-0,14.129 -2.697,27.458 -12.943,38.255l-0.158,0.075c19.993,-6.551 34.417,-25.193 34.417,-47.169c-0,-27.436 -22.484,-49.677 -50.22,-49.677c-27.736,-0 -50.22,22.241 -50.22,49.677Z" style="fill:#333;fill-rule:nonzero;"/><path d="M92.1,52.187c0,0 2.597,-2.699 5.187,-2.115c2.613,0.589 11.32,2.895 11.32,2.895c1.866,0.26 0.982,-1.237 0.983,-1.365c0,-0.128 -8.635,-3.126 -10.808,-3.12c-4.909,0.013 -6.682,3.705 -6.682,3.705Z" style="fill:#333;fill-rule:nonzero;"/><path d="M140.865,51.532c-0,0 -1.515,-3.129 -5.895,-4.29c-3.392,-0.899 -12.773,4.29 -12.773,4.29c-0.273,1.236 1.768,0.78 1.768,0.78c0,0 11.353,-6.864 16.9,-0.78Z" style="fill:#333;fill-rule:nonzero;"/><path d="M106.981,84.349c-0,-0 0.869,0.838 3.341,0.39c2.796,-0.507 6.225,0.015 7.074,0.16l-0,0.035l0.098,-0.018l0.098,0.018l0,-0.035c0.848,-0.145 4.278,-0.667 7.075,-0.16c2.471,0.448 3.34,-0.39 3.34,-0.39c0,-0 -3.781,-0.698 -7.074,-1.56c-1.095,-0.287 -2.988,0.378 -3.439,0.547c-0.451,-0.169 -2.344,-0.834 -3.439,-0.547c-3.293,0.862 -7.074,1.56 -7.074,1.56Z" style="fill:#c00;fill-rule:nonzero;"/><path d="M105.328,85.001l1.024,0.197c0,-0 1.874,5.112 6.349,6.304c0,-0 2.881,1.014 4.506,0.985c0.113,-0.003 0.215,-0.024 0.305,-0.061c0.091,0.037 0.191,0.058 0.304,0.061c1.625,0.029 4.506,-0.985 4.506,-0.985c4.475,-1.192 6.349,-6.304 6.349,-6.304l1.024,-0.197c0,-0 -0.672,-1 -1.434,-0.197c-2.692,2.837 -8.919,3.554 -10.749,3.706c-1.83,-0.152 -8.058,-0.869 -10.75,-3.706c-0.762,-0.803 -1.434,0.197 -1.434,0.197Z" style="fill:#c00;fill-rule:nonzero;"/><g><path id="Ellipse" d="M101.434,59.457c-0,-1.137 1.067,-2.059 2.384,-2.059c1.316,0 2.384,0.922 2.384,2.059c-0,1.137 -1.068,2.059 -2.384,2.059c-1.317,0 -2.384,-0.922 -2.384,-2.059Z" style="fill:#333;fill-rule:nonzero;"/><path id="Ellipse2" d="M127.857,59.457c0,-1.137 1.068,-2.059 2.384,-2.059c1.317,0 2.384,0.922 2.384,2.059c0,1.137 -1.067,2.059 -2.384,2.059c-1.316,0 -2.384,-0.922 -2.384,-2.059Z" style="fill:#333;fill-rule:nonzero;"/><path d="M109.778,60.143c-0,0 -5.046,-8.626 -12.867,-1.232c-1.402,1.325 1.789,1.57 1.789,1.57c3.032,-5.159 11.078,-0.338 11.078,-0.338Z" style="fill:#333;fill-rule:nonzero;"/><path d="M124.393,60.143c0,0 5.046,-8.626 12.868,-1.232c1.401,1.325 -1.79,1.57 -1.79,1.57c-3.032,-5.159 -11.078,-0.338 -11.078,-0.338Z" style="fill:#333;fill-rule:nonzero;"/></g></g><path d="M3.429,117.799c0,-0.992 -0.136,-1.726 -0.408,-2.202c-0.272,-0.477 -0.817,-0.715 -1.634,-0.715l-0.583,0l0,-0.583l2.625,-0c0.72,-0 1.259,0.092 1.619,0.277c0.36,0.185 0.617,0.52 0.773,1.006c0.155,0.486 0.233,1.225 0.233,2.217l0,14.583l10.354,0l0,1.167l-12.979,-0l0,-15.75Z" style="fill-rule:nonzero;"/><path d="M25.683,134.132c-1.808,0 -3.398,-0.447 -4.768,-1.341c-1.371,-0.895 -2.426,-2.12 -3.165,-3.675c-0.739,-1.556 -1.108,-3.287 -1.108,-5.192c-0,-1.906 0.369,-3.636 1.108,-5.192c0.739,-1.555 1.794,-2.78 3.165,-3.675c1.37,-0.894 2.96,-1.341 4.768,-1.341c1.809,-0 3.398,0.447 4.769,1.341c1.371,0.895 2.426,2.12 3.165,3.675c0.739,1.556 1.108,3.286 1.108,5.192c0,1.905 -0.369,3.636 -1.108,5.192c-0.739,1.555 -1.794,2.78 -3.165,3.675c-1.371,0.894 -2.96,1.341 -4.769,1.341Zm0,-1.166c1.264,-0 2.358,-0.37 3.282,-1.109c0.923,-0.739 1.628,-1.784 2.114,-3.135c0.486,-1.352 0.729,-2.951 0.729,-4.798c0,-1.847 -0.243,-3.447 -0.729,-4.798c-0.486,-1.351 -1.191,-2.397 -2.114,-3.135c-0.924,-0.739 -2.018,-1.109 -3.282,-1.109c-1.264,0 -2.357,0.37 -3.281,1.109c-0.924,0.738 -1.628,1.784 -2.115,3.135c-0.486,1.351 -0.729,2.951 -0.729,4.798c0,1.847 0.243,3.446 0.729,4.798c0.487,1.351 1.191,2.396 2.115,3.135c0.924,0.739 2.017,1.109 3.281,1.109Z" style="fill-rule:nonzero;"/><path d="M37.933,117.711c-0.486,-1.127 -0.943,-1.9 -1.371,-2.318c-0.427,-0.418 -1.04,-0.666 -1.837,-0.744l0,-0.583c0.097,-0 0.238,-0.01 0.423,-0.03c0.185,-0.019 0.374,-0.029 0.569,-0.029c0.972,0 1.905,0.248 2.8,0.744c0.894,0.496 1.652,1.483 2.275,2.96l4.987,11.755l6.417,-15.167l1.4,-0l-8.371,19.542l-0.525,-0l-6.767,-16.13Z" style="fill-rule:nonzero;"/><path d="M57.329,117.799c0,-0.992 -0.136,-1.726 -0.408,-2.202c-0.272,-0.477 -0.817,-0.715 -1.634,-0.715l-0.583,0l0,-0.583l12.425,-0c1.653,-0 2.479,0.778 2.479,2.333l0,2.188l-0.583,-0c0,-2.236 -1.215,-3.354 -3.646,-3.354l-5.425,-0l0,7.583l7.875,-0l0,1.167l-7.875,-0l0,8.166l5.104,0c1.342,0 2.392,-0.243 3.15,-0.729c0.759,-0.486 1.361,-1.312 1.809,-2.479l0.583,0.146l-1.021,2.771c-0.35,0.972 -1.079,1.458 -2.187,1.458l-10.063,-0l0,-15.75Z" style="fill-rule:nonzero;"/><path d="M96.354,134.132c-1.808,0 -3.398,-0.437 -4.769,-1.312c-1.37,-0.875 -2.425,-2.066 -3.164,-3.573c-0.739,-1.507 -1.108,-3.184 -1.108,-5.031c-0,-1.906 0.403,-3.666 1.21,-5.28c0.807,-1.614 1.905,-2.887 3.296,-3.82c1.39,-0.934 2.902,-1.4 4.535,-1.4c1.556,-0 2.922,0.218 4.098,0.656c1.176,0.437 2.047,0.996 2.611,1.677c0.33,0.408 0.534,0.948 0.612,1.619c0.078,0.67 0.117,1.589 0.117,2.756l-0.584,-0c-0.369,-1.886 -1.05,-3.281 -2.041,-4.186c-0.992,-0.904 -2.304,-1.356 -3.938,-1.356c-2.1,0 -3.791,0.739 -5.075,2.217c-1.283,1.478 -1.925,3.85 -1.925,7.117c0,1.536 0.248,2.965 0.744,4.287c0.496,1.322 1.269,2.397 2.319,3.223c1.05,0.826 2.362,1.24 3.937,1.24c1.42,-0 2.659,-0.341 3.719,-1.021c1.06,-0.681 2.008,-1.702 2.844,-3.063l0.583,0.438c-0.894,1.75 -1.998,2.989 -3.31,3.718c-1.313,0.73 -2.883,1.094 -4.711,1.094Z" style="fill-rule:nonzero;"/><path d="M123.567,133.695c-0.934,-0 -1.857,-0.258 -2.771,-0.773c-0.914,-0.515 -1.643,-1.522 -2.188,-3.019l-0.729,-1.896l-8.166,0l-2.334,5.542l-1.312,-0l8.166,-19.25l0.875,-0l6.417,15.604c0.486,1.128 0.943,1.901 1.371,2.319c0.428,0.418 1.04,0.666 1.837,0.744l0,0.583c-0.35,0.097 -0.739,0.146 -1.166,0.146Zm-6.271,-6.854l-3.5,-8.459l-3.646,8.459l7.146,-0Z" style="fill-rule:nonzero;"/><path d="M139.842,133.841c-1.011,-0 -1.901,-0.307 -2.669,-0.919c-0.768,-0.613 -1.619,-1.716 -2.552,-3.311l-2.917,-4.958l-2.042,0l0,8.896l-2.625,-0l0,-15.75c0,-0.992 -0.136,-1.726 -0.408,-2.202c-0.272,-0.477 -0.817,-0.715 -1.633,-0.715l-0.584,0l0,-0.583l7.584,-0c1.828,-0 3.5,0.364 5.016,1.094c1.517,0.729 2.275,2.104 2.275,4.127c0,1.516 -0.442,2.649 -1.327,3.398c-0.884,0.748 -1.998,1.278 -3.339,1.589l3.062,5.104c0.72,1.206 1.366,2.047 1.94,2.523c0.574,0.477 1.239,0.754 1.998,0.832l-0,0.583c-0.175,0.078 -0.428,0.146 -0.759,0.204c-0.33,0.058 -0.67,0.088 -1.02,0.088Zm-8.08,-10.209c0.642,0 1.323,-0.146 2.042,-0.437c0.72,-0.292 1.327,-0.749 1.823,-1.371c0.496,-0.622 0.744,-1.4 0.744,-2.333c-0,-0.934 -0.253,-1.712 -0.759,-2.334c-0.505,-0.622 -1.113,-1.084 -1.822,-1.385c-0.71,-0.302 -1.386,-0.452 -2.028,-0.452c-0.622,-0 -1.322,0.097 -2.1,0.291l0,8.021l2.1,0Z" style="fill-rule:nonzero;"/><path d="M144.392,117.799c-0,-0.992 -0.136,-1.726 -0.409,-2.202c-0.272,-0.477 -0.816,-0.715 -1.633,-0.715l-0.583,0l-0,-0.583l12.425,-0c1.652,-0 2.479,0.778 2.479,2.333l-0,2.188l-0.584,-0c0,-2.236 -1.215,-3.354 -3.645,-3.354l-5.425,-0l-0,7.583l7.875,-0l-0,1.167l-7.875,-0l-0,8.166l5.104,0c1.341,0 2.391,-0.243 3.15,-0.729c0.758,-0.486 1.361,-1.312 1.808,-2.479l0.583,0.146l-1.02,2.771c-0.35,0.972 -1.079,1.458 -2.188,1.458l-10.062,-0l-0,-15.75Z" style="fill-rule:nonzero;"/><path d="M181.317,134.045c-1.07,-0 -2.12,-0.146 -3.15,-0.438c-1.031,-0.291 -1.872,-0.71 -2.523,-1.254c-0.652,-0.544 -0.977,-1.167 -0.977,-1.867l-0,-3.12l0.525,-0c0.33,1.944 0.972,3.349 1.925,4.214c0.952,0.865 2.265,1.298 3.937,1.298c1.05,0 1.949,-0.262 2.698,-0.787c0.749,-0.525 1.123,-1.255 1.123,-2.188c-0,-0.817 -0.253,-1.526 -0.758,-2.129c-0.506,-0.603 -1.323,-1.235 -2.45,-1.896l-3.588,-2.129c-1.244,-0.739 -2.124,-1.488 -2.639,-2.246c-0.516,-0.758 -0.773,-1.682 -0.773,-2.771c-0,-1.497 0.52,-2.698 1.56,-3.602c1.04,-0.904 2.406,-1.356 4.098,-1.356c0.992,-0 1.974,0.141 2.946,0.423c0.972,0.282 1.774,0.69 2.406,1.225c0.632,0.535 0.948,1.152 0.948,1.852l-0,3.121l-0.525,-0c-0.331,-1.945 -0.958,-3.34 -1.881,-4.186c-0.924,-0.846 -2.222,-1.268 -3.894,-1.268c-0.894,-0 -1.682,0.272 -2.363,0.816c-0.68,0.545 -1.02,1.254 -1.02,2.129c-0,0.798 0.248,1.459 0.743,1.984c0.496,0.525 1.327,1.137 2.494,1.837l3.588,2.129c1.322,0.798 2.255,1.536 2.8,2.217c0.544,0.681 0.816,1.546 0.816,2.596c0,1.633 -0.544,2.941 -1.633,3.923c-1.089,0.982 -2.567,1.473 -4.433,1.473Z" style="fill-rule:nonzero;"/><path d="M206.75,133.841c-0.914,-0 -1.867,-0.248 -2.858,-0.744c-0.992,-0.496 -2.129,-1.415 -3.413,-2.756l-6.125,-6.417l0,9.625l-2.625,-0l0,-15.75c0,-0.992 -0.136,-1.726 -0.408,-2.202c-0.272,-0.477 -0.817,-0.715 -1.633,-0.715l-0.584,0l0,-0.583l2.625,-0c0.72,-0 1.259,0.092 1.619,0.277c0.36,0.185 0.617,0.52 0.773,1.006c0.155,0.486 0.233,1.225 0.233,2.217l0,5.687l6.125,-6.125l0.584,-0.612c0.544,-0.564 1.001,-1.006 1.37,-1.327c0.37,-0.321 0.807,-0.588 1.313,-0.802c0.505,-0.214 1.069,-0.321 1.692,-0.321l1.458,-0l-0,0.729c-0.817,0 -1.527,0.141 -2.129,0.423c-0.603,0.282 -1.303,0.821 -2.1,1.619l-5.688,5.687l6.709,7c0.855,0.875 1.72,1.609 2.595,2.202c0.875,0.593 1.663,0.938 2.363,1.036l-0,0.554c-0.583,0.194 -1.215,0.292 -1.896,0.292Z" style="fill-rule:nonzero;"/><path d="M213.604,133.549c-0.719,-0 -1.259,-0.092 -1.619,-0.277c-0.359,-0.185 -0.617,-0.52 -0.773,-1.006c-0.155,-0.487 -0.233,-1.225 -0.233,-2.217l0,-15.75l2.625,-0l0,15.75c0,0.992 0.136,1.726 0.408,2.202c0.273,0.476 0.817,0.715 1.634,0.715l0.583,-0l0,0.583l-2.625,-0Z" style="fill-rule:nonzero;"/><path d="M221.071,118.236l-0,15.313l-1.167,-0l0,-15.75c0,-0.933 -0.199,-1.653 -0.598,-2.158c-0.398,-0.506 -1.074,-0.759 -2.027,-0.759l-0.292,0l0,-0.583l1.896,-0c0.895,-0 1.653,0.146 2.275,0.437c0.623,0.292 1.177,0.73 1.663,1.313l10.208,12.687l0,-14.437l1.167,-0l-0,19.542l-0.584,-0l-12.541,-15.605Z" style="fill-rule:nonzero;"/></g></svg>