<?xml version="1.0" encoding="UTF-8"?> <svg xmlns="http://www.w3.org/2000/svg" xmlns:xlink="http://www.w3.org/1999/xlink" id="Ebene_1" viewBox="0 0 283.46 283.46"><defs><style>.cls-1{fill:none;}.cls-2{fill:#f8a819;}.cls-3{fill:#010101;}.cls-4{fill:#e83d3b;}.cls-5{fill:#6fa1d7;}.cls-6{fill:#ffe00f;}.cls-7{fill:#86bc28;}.cls-8{fill:#784595;}.cls-9{clip-path:url(#clippath);}</style><clipPath id="clippath"><path class="cls-1" d="M91.06,111.78c-.21-2.27-.26-3.33.42-4.01.69-.69,1.79-.58,4.01-.42,8.08.69,16.15,1.37,24.39,2.06l9.87.84-2.11-24.13c-.37-3.75-.63-7.55-1.06-11.3-.05-.74-.11-1.58.48-2.16.58-.53,1.37-.53,2.22-.48,10.03.9,20.69,1.85,34.53,2.96.48.05.84.11,1.21.11.16,0,.37.05.48.05,0-.26-.05-.74-.11-1.21l-.42-4.28c-.9-10.08-1.79-20.22-2.75-30.36-.05-.63-.11-1.37.42-1.9.53-.53,1.27-.48,1.95-.42,4.17.42,8.39.69,12.56,1.11-6.23-10.45-17.47-17.74-30.41-18.48-18.74-1.16-34.79,11.09-39.22,27.87-.79,2.96-1.21,5.17-1.21,5.17,0,0-.48-2.69-1.37-5.86-4.7-16.42-20.54-28.3-39.07-27.13-19.01,1.16-34.42,16.37-35.48,35-.58,9.34,2.43,18,7.76,24.81,4.86,6.23,36.8,39.01,55.17,57.75l-.48-5.28c-.69-6.76-1.27-13.51-1.79-20.32Z"></path></clipPath></defs><g class="cls-9"><rect class="cls-4" x="6.17" y="14.49" width="196.81" height="21.01"></rect><rect class="cls-2" x="6.17" y="35.5" width="196.81" height="21.01"></rect><rect class="cls-6" x="6.17" y="56.45" width="196.81" height="21.01"></rect><rect class="cls-7" x="6.17" y="77.41" width="196.81" height="21.01"></rect><rect class="cls-5" x="6.17" y="98.37" width="196.81" height="21.01"></rect><rect class="cls-8" x="6.17" y="119.38" width="196.81" height="21.01"></rect></g><path class="cls-3" d="M197.07,71.39c-.16-1.69.16-1.95,1.85-1.79,9.56.84,19.22,1.69,28.82,2.43-1.06-1.27-1.95-2.59-3.11-3.75-4.22-4.43-8.5-8.76-12.72-13.2-5.97-6.12-11.93-12.25-17.95-18.42-10.56-.84-21.06-1.74-31.62-2.69-1.37-.11-1.69.11-1.53,1.48,1.11,11.35,2.06,22.7,3.06,34.05.26,3.27.42,2.64-2.38,2.43-11.51-.95-23.07-1.95-34.58-2.96-1.74-.16-2.01.26-1.85,1.85.53,4.91.9,9.82,1.37,14.73.63,7.18,1.27,14.36,1.9,21.64-11.83-1.06-23.49-2.01-35.16-2.96-3.96-.37-3.91-.37-3.54,3.59.84,9.45,1.58,19.01,2.48,28.45,6.92,6.44,13.88,12.83,20.75,19.27,5.02,4.65,9.71,9.5,15.2,13.57-.26-3.96-.58-7.87-.9-11.83-.53-5.97-1.06-11.88-1.53-17.95,12.51,1.06,24.76,2.06,37.11,3.17,1.58.16,2.01,0,1.85-1.74-1.11-11.46-2.06-23.02-3.17-34.53-.11-1.48,0-2.01,1.79-1.85,11.72,1.11,23.44,2.01,35.21,3.11,1.53.11,2.06-.05,1.9-1.79-1.21-11.35-2.16-22.86-3.27-34.31Z"></path><path class="cls-3" d="M39.54,169.8c0-12.72,6.7-19.96,19.01-19.96s19.01,7.29,19.01,19.96v41.34c0,4.43-.79,8.18-2.43,11.14.58,1.48,1.48,1.74,3.48,1.74h1.16v11.09h-1.74c-5.54,0-9.08-2.06-10.77-5.44-2.53.9-5.44,1.48-8.71,1.48-12.25,0-19.01-7.29-19.01-19.96v-41.39ZM52.05,211.87c0,5.7,2.53,7.87,6.49,7.87s6.49-2.16,6.49-7.87v-42.92c0-5.7-2.53-7.87-6.49-7.87s-6.49,2.16-6.49,7.87v42.92Z"></path><path class="cls-3" d="M97.45,150.69v61.29c0,5.7,2.53,7.76,6.49,7.76s6.49-2.06,6.49-7.76v-51.47l11.83,11.67-.05,39.07c0,12.72-6.39,19.96-18.64,19.96s-18.64-7.29-18.64-19.96v-60.55h12.51Z"></path><path class="cls-3" d="M143.17,184.16h17.16v11.35h-17.16v23.28h21.54v11.35l-30.62-.37-3.48-85.1,34.79,3.06-.63,14.36h-21.54l-.05,22.07Z"></path><path class="cls-3" d="M184.98,184.16h17.16v11.35h-17.16v23.28h21.54v11.35h-34.05v-79.45h34.05v11.35h-21.54v22.12Z"></path><path class="cls-3" d="M240.36,230.19c-.69-2.06-1.16-3.27-1.16-9.77v-12.51c0-7.39-2.53-10.08-8.18-10.08h-4.28v32.36h-12.51v-79.5h18.85c12.93,0,18.53,6.02,18.53,18.32v6.23c0,8.18-2.64,13.51-8.18,16.1,6.23,2.64,8.34,8.61,8.34,16.89v12.25c0,3.85.11,6.7,1.37,9.61h-12.78v.11ZM226.79,162.04v24.44h4.86c4.65,0,7.5-2.06,7.5-8.39v-7.87c0-5.7-1.95-8.18-6.39-8.18h-5.97Z"></path><path class="cls-3" d="M46.06,244.99c.95,0,1.75.16,2.4.48.65.32,1.17.74,1.57,1.26.4.52.68,1.11.85,1.77.17.67.26,1.34.26,2.03,0,.95-.14,1.78-.43,2.49-.28.71-.68,1.29-1.19,1.74s-1.13.79-1.85,1.01c-.73.22-1.53.34-2.41.34h-1.99v7.38h-3.73v-18.5h6.53ZM44.93,253.36c.74,0,1.34-.22,1.8-.67.46-.45.69-1.15.69-2.1s-.2-1.64-.6-2.12c-.4-.48-1.06-.73-2-.73h-1.55v5.62h1.66Z"></path><path class="cls-3" d="M68.5,244.99v3.06h-6.61v4.35h6.22v3.06h-6.22v8.03h-3.73v-18.5h10.34Z"></path><path class="cls-3" d="M82.15,244.99l4.9,18.5h-3.89l-.86-3.91h-4.92l-.86,3.91h-3.89l4.9-18.5h4.61ZM81.66,256.52l-1.79-8.32h-.05l-1.79,8.32h3.63Z"></path><path class="cls-3" d="M103.86,244.99v3.06h-6.61v4.35h6.22v3.06h-6.22v8.03h-3.73v-18.5h10.34Z"></path><path class="cls-3" d="M121.04,244.99v3.06h-6.61v4.35h6.22v3.06h-6.22v8.03h-3.73v-18.5h10.34Z"></path><path class="cls-3" d="M138.22,248.05h-6.61v4.35h6.22v3.06h-6.22v4.97h6.87v3.06h-10.6v-18.5h10.34v3.06Z"></path><path class="cls-3" d="M154.33,257.66h.05v-12.67h3.42v18.5h-4.25l-4.56-12.95h-.05v12.95h-3.42v-18.5h4.3l4.51,12.67Z"></path><path class="cls-3" d="M169.3,244.99v7.07h4.35v-7.07h3.73v18.5h-3.73v-8.21h-4.35v8.21h-3.73v-18.5h3.73Z"></path><path class="cls-3" d="M184.96,250.37c.13-1.18.41-2.2.85-3.04.44-.85,1.07-1.51,1.9-1.98.83-.47,1.94-.71,3.34-.71s2.51.24,3.34.71c.83.48,1.46,1.14,1.9,1.98.44.85.73,1.86.85,3.04s.19,2.47.19,3.87-.06,2.71-.19,3.89-.41,2.19-.85,3.03-1.07,1.49-1.9,1.94c-.83.45-1.94.67-3.34.67s-2.51-.22-3.34-.67c-.83-.45-1.46-1.1-1.9-1.94s-.73-1.86-.85-3.03c-.13-1.17-.19-2.47-.19-3.89s.06-2.69.19-3.87ZM188.59,257.42c.06.87.18,1.58.36,2.12.18.54.44.94.78,1.19.34.25.78.38,1.33.38s1-.12,1.33-.38.6-.65.78-1.19c.18-.54.3-1.25.36-2.12.06-.87.09-1.93.09-3.17s-.03-2.3-.09-3.16c-.06-.86-.18-1.57-.36-2.12-.18-.55-.44-.95-.78-1.21-.34-.25-.78-.38-1.33-.38s-1,.13-1.33.38c-.34.25-.6.65-.78,1.21-.18.55-.3,1.26-.36,2.12s-.09,1.92-.09,3.16.03,2.3.09,3.17Z"></path><path class="cls-3" d="M215.08,244.99v3.06h-6.61v4.35h6.22v3.06h-6.22v8.03h-3.73v-18.5h10.34Z"></path><path class="cls-3" d="M232.26,248.05h-6.61v4.35h6.22v3.06h-6.22v4.97h6.87v3.06h-10.6v-18.5h10.34v3.06Z"></path><path class="cls-3" d="M248.37,257.66h.05v-12.67h3.42v18.5h-4.25l-4.56-12.95h-.05v12.95h-3.42v-18.5h4.3l4.51,12.67Z"></path></svg> 