<?xml version="1.0" encoding="utf-8"?>
<!-- Generator: Adobe Illustrator 23.0.4, SVG Export Plug-In . SVG Version: 6.00 Build 0)  -->
<svg version="1.1" id="Ebene_1" xmlns="http://www.w3.org/2000/svg" xmlns:xlink="http://www.w3.org/1999/xlink" x="0px" y="0px"
	 viewBox="0 0 238.1 69.6" style="enable-background:new 0 0 238.1 69.6;" xml:space="preserve">
<style type="text/css">
	.st0{fill-rule:evenodd;clip-rule:evenodd;fill:#FFFFFF;}
	.st1{fill:#2E5DAD;}
	.st2{fill:#F5E51E;}
	.st3{fill:#181715;}
</style>
<polygon class="st0" points="0,69.6 0,12.9 226.8,12.9 238.1,0 238.1,56.7 226.8,69.6 "/>
<path class="st1" d="M39.4,42.2l-5.5,6.6l0,0l0,0l-5.5-6.6l-5.5,6.6l0,0l0,0l-5.5-6.6L13,47.4c1,7.5,7.6,13.3,15.4,13.3
	c7.7,0,14.4-5.8,15.4-13.2L39.4,42.2L39.4,42.2z"/>
<path class="st1" d="M17.3,31.1l5.5,6.6l5.5-6.6l5.5,6.6l5.5-6.6l4.7,5.6c0.1-6.3,0.3-13.4,0.3-13.4c-5.2-0.9-10.6-1.5-16.1-1.5
	c-5.5,0-10.9,0.5-16.1,1.4c0,0,0.2,7,0.4,13.3L17.3,31.1L17.3,31.1z"/>
<path class="st2" d="M39.4,31.1l-5.5,6.6l-5.5-6.6l-5.5,6.6l-5.5-6.6l-4.7,5.6c0.1,4.7,0.2,8.8,0.2,8.8c0,0.7,0,1.3,0.1,2l4.3-5.1
	l5.5,6.6l0,0l0,0l5.5-6.6l5.5,6.6l0,0l0,0l5.5-6.6l4.4,5.2c0.1-0.7,0.1-1.3,0.1-2c0,0,0.1-4.1,0.2-8.7L39.4,31.1L39.4,31.1z"/>
<g>
	<path class="st3" d="M75.5,33.3c0,0.8-0.3,1.4-0.8,2c-0.5,0.5-1.2,0.8-2.1,0.8h-1.8c-0.1,0-0.2,0-0.2,0.2v4.2c0,0.1,0,0.2-0.2,0.2
		h-1.1c-0.1,0-0.2,0-0.2-0.2v-9.8c0-0.1,0-0.2,0.2-0.2h3.2c0.9,0,1.6,0.3,2.1,0.8C75.2,31.7,75.5,32.4,75.5,33.3z M74,33.3v-0.2
		c0-0.4-0.1-0.7-0.4-1c-0.3-0.3-0.6-0.4-1-0.4h-1.8c-0.1,0-0.2,0-0.2,0.2v2.7c0,0.1,0,0.2,0.2,0.2h1.8c0.4,0,0.7-0.1,1-0.4
		C73.9,34,74,33.7,74,33.3z"/>
	<path class="st3" d="M82.6,31.5c0,0.1,0,0.2-0.2,0.2h-4c-0.1,0-0.2,0-0.2,0.2v2.7c0,0.1,0,0.2,0.2,0.2h3.3c0.1,0,0.2,0,0.2,0.2v1
		c0,0.1,0,0.2-0.2,0.2h-3.3c-0.1,0-0.2,0-0.2,0.2v4.2c0,0.1,0,0.2-0.2,0.2H77c-0.1,0-0.2,0-0.2-0.2v-9.8c0-0.1,0-0.2,0.2-0.2h5.4
		c0.1,0,0.2,0,0.2,0.2V31.5z"/>
</g>
<g>
	<path class="st3" d="M89.4,40.4c0,0.1-0.1,0.1-0.2,0.1H88c-0.1,0-0.1,0-0.2-0.1l-0.6-2.1c0-0.1-0.1-0.1-0.2-0.1h-2.6
		c-0.1,0-0.1,0-0.2,0.1l-0.6,2.1c0,0.1-0.1,0.1-0.2,0.1h-1.2c-0.1,0-0.2,0-0.2-0.1c0,0,0-0.2,0.2-0.5l2.8-9.3c0-0.1,0.1-0.1,0.2-0.1
		h0.9c0.1,0,0.1,0,0.2,0.1l2.8,9.3C89.3,40.2,89.4,40.4,89.4,40.4z M86.8,36.8c0,0,0-0.1-0.1-0.4L86,33.7c0-0.2-0.1-0.4-0.2-0.7
		h-0.1c-0.1,0.2-0.1,0.5-0.2,0.7l-0.7,2.6c-0.1,0.3-0.1,0.4-0.1,0.4c0,0.1,0.1,0.1,0.2,0.1h1.7C86.8,36.9,86.8,36.8,86.8,36.8z"/>
	<path class="st3" d="M96.4,31.5c0,0.1,0,0.2-0.2,0.2h-4c-0.1,0-0.2,0-0.2,0.2v2.7c0,0.1,0,0.2,0.2,0.2h3.3c0.1,0,0.2,0,0.2,0.2v1
		c0,0.1,0,0.2-0.2,0.2h-3.3c-0.1,0-0.2,0-0.2,0.2v4.2c0,0.1,0,0.2-0.2,0.2h-1.1c-0.1,0-0.2,0-0.2-0.2v-9.8c0-0.1,0-0.2,0.2-0.2h5.4
		c0.1,0,0.2,0,0.2,0.2V31.5z"/>
	<path class="st3" d="M103.6,31.5c0,0.1,0,0.2-0.2,0.2h-4c-0.1,0-0.2,0-0.2,0.2v2.7c0,0.1,0,0.2,0.2,0.2h3.3c0.1,0,0.2,0,0.2,0.2v1
		c0,0.1,0,0.2-0.2,0.2h-3.3c-0.1,0-0.2,0-0.2,0.2v4.2c0,0.1,0,0.2-0.2,0.2H98c-0.1,0-0.2,0-0.2-0.2v-9.8c0-0.1,0-0.2,0.2-0.2h5.4
		c0.1,0,0.2,0,0.2,0.2V31.5z"/>
</g>
<g>
	<path class="st3" d="M110.7,40.3c0,0.1,0,0.2-0.2,0.2h-5.4c-0.1,0-0.2,0-0.2-0.2v-9.8c0-0.1,0-0.2,0.2-0.2h5.4c0.1,0,0.2,0,0.2,0.2
		v1c0,0.1,0,0.2-0.2,0.2h-4c-0.1,0-0.2,0-0.2,0.2v2.7c0,0.1,0,0.2,0.2,0.2h3.3c0.1,0,0.2,0,0.2,0.2v1c0,0.1,0,0.2-0.2,0.2h-3.3
		c-0.1,0-0.2,0-0.2,0.2V39c0,0.1,0,0.2,0.2,0.2h4c0.1,0,0.2,0,0.2,0.2V40.3z"/>
	<path class="st3" d="M119.1,40.3c0,0.1,0,0.2-0.2,0.2h-1c-0.1,0-0.1,0-0.1-0.1l-3.4-6.2c-0.1-0.3-0.2-0.5-0.3-0.6l-0.1,0
		c0,0.4,0,1.6,0,3.7v3c0,0.1,0,0.2-0.2,0.2h-1.1c-0.1,0-0.2,0-0.2-0.2v-9.8c0-0.1,0-0.2,0.2-0.2h1c0.1,0,0.1,0,0.1,0.1l3.4,6.2
		c0.1,0.3,0.2,0.5,0.3,0.6l0.1,0c0-0.4,0-1.6,0-3.7v-3c0-0.1,0-0.2,0.2-0.2h1.1c0.1,0,0.2,0,0.2,0.2L119.1,40.3L119.1,40.3z"/>
</g>
<g>
	<path class="st3" d="M127.9,40.3c0,0.1,0,0.2-0.2,0.2h-1.1c-0.1,0-0.2,0-0.2-0.2v-4.2c0-0.1-0.1-0.2-0.2-0.2H123
		c-0.1,0-0.2,0-0.2,0.2v4.2c0,0.1,0,0.2-0.2,0.2h-1.1c-0.1,0-0.2,0-0.2-0.2v-9.8c0-0.1,0-0.2,0.2-0.2h1.1c0.1,0,0.2,0,0.2,0.2v4
		c0,0.1,0,0.2,0.2,0.2h3.3c0.1,0,0.2,0,0.2-0.2v-4c0-0.1,0-0.2,0.2-0.2h1.1c0.1,0,0.2,0,0.2,0.2V40.3z"/>
	<path class="st3" d="M136,37.9c0,0.8-0.3,1.5-0.8,2s-1.2,0.8-2.1,0.8h-0.5c-0.9,0-1.6-0.2-2.1-0.8c-0.5-0.5-0.8-1.2-0.8-2v-5
		c0-0.8,0.3-1.5,0.8-2s1.2-0.8,2.1-0.8h0.5c0.9,0,1.6,0.2,2.1,0.8s0.8,1.2,0.8,2V37.9z M134.5,37.9v-5c0-0.4-0.1-0.7-0.4-1
		c-0.3-0.3-0.6-0.4-1-0.4h-0.5c-0.4,0-0.7,0.1-1,0.4c-0.3,0.3-0.4,0.6-0.4,1v5c0,0.4,0.1,0.7,0.4,1c0.3,0.3,0.6,0.4,1,0.4h0.5
		c0.4,0,0.7-0.1,1-0.4C134.4,38.7,134.5,38.3,134.5,37.9z"/>
	<path class="st3" d="M143.5,31.5c0,0.1,0,0.2-0.2,0.2h-4c-0.1,0-0.2,0-0.2,0.2v2.7c0,0.1,0,0.2,0.2,0.2h3.3c0.1,0,0.2,0,0.2,0.2v1
		c0,0.1,0,0.2-0.2,0.2h-3.3c-0.1,0-0.2,0-0.2,0.2v4.2c0,0.1,0,0.2-0.2,0.2h-1.1c-0.1,0-0.2,0-0.2-0.2v-9.8c0-0.1,0-0.2,0.2-0.2h5.4
		c0.1,0,0.2,0,0.2,0.2V31.5z"/>
</g>
<g>
	<path class="st3" d="M150.5,40.3c0,0.1,0,0.2-0.2,0.2h-5.4c-0.1,0-0.2,0-0.2-0.2v-9.8c0-0.1,0-0.2,0.2-0.2h5.4c0.1,0,0.2,0,0.2,0.2
		v1c0,0.1,0,0.2-0.2,0.2h-4c-0.1,0-0.2,0-0.2,0.2v2.7c0,0.1,0,0.2,0.2,0.2h3.3c0.1,0,0.2,0,0.2,0.2v1c0,0.1,0,0.2-0.2,0.2h-3.3
		c-0.1,0-0.2,0-0.2,0.2V39c0,0.1,0,0.2,0.2,0.2h4c0.1,0,0.2,0,0.2,0.2V40.3z"/>
	<path class="st3" d="M158.9,40.3c0,0.1,0,0.2-0.2,0.2h-1c-0.1,0-0.1,0-0.1-0.1l-3.4-6.2c-0.1-0.3-0.2-0.5-0.3-0.6l-0.1,0
		c0,0.4,0,1.6,0,3.7v3c0,0.1-0.1,0.2-0.2,0.2h-1.1c-0.1,0-0.2,0-0.2-0.2v-9.8c0-0.1,0-0.2,0.2-0.2h1c0.1,0,0.1,0,0.1,0.1l3.4,6.2
		c0.1,0.3,0.2,0.5,0.3,0.6l0.1,0c0-0.4,0-1.6,0-3.7v-3c0-0.1,0-0.2,0.2-0.2h1.1c0.1,0,0.2,0,0.2,0.2L158.9,40.3L158.9,40.3z"/>
	<path class="st3" d="M170.1,40.4c0,0.1-0.1,0.1-0.2,0.1h-1.2c-0.1,0-0.1,0-0.2-0.1l-0.6-2.1c0-0.1-0.1-0.1-0.2-0.1h-2.6
		c-0.1,0-0.1,0-0.2,0.1l-0.6,2.1c0,0.1-0.1,0.1-0.2,0.1h-1.2c-0.1,0-0.2,0-0.2-0.1c0,0,0.1-0.2,0.2-0.5l2.8-9.3
		c0-0.1,0.1-0.1,0.2-0.1h0.9c0.1,0,0.1,0,0.2,0.1l2.8,9.3C170.1,40.2,170.1,40.4,170.1,40.4z M167.5,36.8c0,0,0-0.1-0.1-0.4
		l-0.7-2.7c0-0.2-0.1-0.4-0.2-0.7h-0.1c-0.1,0.2-0.1,0.5-0.2,0.7l-0.7,2.6c-0.1,0.3-0.1,0.4-0.1,0.4c0,0.1,0.1,0.1,0.2,0.1h1.7
		C167.5,36.9,167.5,36.8,167.5,36.8z"/>
</g>
<g>
	<path class="st3" d="M173.1,39.8c0,0.2-0.1,0.5-0.2,0.6s-0.4,0.2-0.6,0.2c-0.2,0-0.5-0.1-0.6-0.2s-0.2-0.4-0.2-0.6
		c0-0.2,0.1-0.5,0.2-0.6c0.2-0.2,0.4-0.2,0.6-0.2s0.5,0.1,0.6,0.2C173,39.3,173.1,39.5,173.1,39.8z"/>
	<path class="st3" d="M182.5,37.6c0,0.9-0.3,1.6-0.8,2.1c-0.5,0.5-1.2,0.8-2.1,0.8h-3.2c-0.1,0-0.2,0-0.2-0.2v-9.8
		c0-0.1,0-0.2,0.2-0.2h3.2c0.9,0,1.6,0.3,2.1,0.8c0.5,0.5,0.8,1.2,0.8,2.1V37.6z M181,37.8v-4.6c0-0.4-0.1-0.7-0.4-1
		c-0.3-0.3-0.6-0.4-1-0.4h-1.8c-0.1,0-0.2,0-0.2,0.2V39c0,0.1,0,0.2,0.2,0.2h1.8c0.4,0,0.7-0.1,1-0.4C180.9,38.5,181,38.2,181,37.8z
		"/>
</g>
<g>
	<path class="st3" d="M185.7,39.8c0,0.2-0.1,0.5-0.2,0.6s-0.4,0.2-0.6,0.2c-0.2,0-0.5-0.1-0.6-0.2S184,40,184,39.8
		c0-0.2,0.1-0.5,0.2-0.6c0.2-0.2,0.4-0.2,0.6-0.2s0.5,0.1,0.6,0.2C185.6,39.3,185.7,39.5,185.7,39.8z"/>
	<path class="st3" d="M191.9,40.3c0,0.1,0,0.2-0.2,0.2h-1.1c-0.1,0-0.2,0-0.2-0.2v-9.8c0-0.1,0-0.2,0.2-0.2h1.1c0.1,0,0.2,0,0.2,0.2
		V40.3z"/>
</g>
<g>
	<path class="st3" d="M199.6,40.3c0,0.1,0,0.2-0.2,0.2H194c-0.1,0-0.2,0-0.2-0.2v-9.8c0-0.1,0-0.2,0.2-0.2h1.1c0.1,0,0.2,0,0.2,0.2
		V39c0,0.1,0,0.2,0.2,0.2h4c0.1,0,0.2,0,0.2,0.2V40.3z"/>
	<path class="st3" d="M208.6,40.3c0,0.1,0,0.2-0.2,0.2h-1.1c-0.1,0-0.2,0-0.2-0.2v-2.8c0-1.3,0-2.6,0.1-3.7l-0.1,0
		c-0.1,0.4-0.2,0.8-0.4,1.1l-1.8,4c0,0.1-0.1,0.1-0.1,0.1h-0.5c-0.1,0-0.1,0-0.1-0.1l-1.8-4c-0.1-0.3-0.3-0.7-0.4-1.1l-0.1,0
		c0.1,1.2,0.1,2.4,0.1,3.7v2.8c0,0.1,0,0.2-0.2,0.2h-1.1c-0.1,0-0.2,0-0.2-0.2v-9.8c0-0.1,0-0.2,0.2-0.2h1c0.1,0,0.1,0,0.1,0.1
		l2.4,5.7c0.1,0.2,0.1,0.4,0.2,0.6h0c0-0.2,0.1-0.4,0.2-0.6l2.4-5.7c0-0.1,0.1-0.1,0.1-0.1h1c0.1,0,0.2,0,0.2,0.2L208.6,40.3
		L208.6,40.3z"/>
</g>
<g>
	<path class="st3" d="M73.4,51.4c0,0.6-0.2,1-0.6,1.4c-0.4,0.4-0.9,0.5-1.5,0.5h-0.4c-0.6,0-1.1-0.2-1.5-0.5
		c-0.4-0.4-0.6-0.8-0.6-1.4v-3.9c0-0.6,0.2-1.1,0.6-1.4s0.9-0.5,1.5-0.5h0.6c0.7,0,1.2,0.2,1.6,0.7c0.2,0.2,0.2,0.3,0.2,0.4
		s0,0.1-0.1,0.1l-0.4,0.2c-0.1,0-0.1,0-0.1,0c0,0-0.1,0-0.1,0c-0.3-0.4-0.7-0.7-1.1-0.7h-0.6c-0.4,0-0.7,0.1-0.9,0.4
		c-0.2,0.2-0.4,0.5-0.4,0.9v3.9c0,0.3,0.1,0.7,0.4,0.9s0.5,0.4,0.9,0.4h0.4c0.4,0,0.6-0.1,0.9-0.4s0.4-0.5,0.4-0.9v-1
		c0-0.1,0-0.1-0.1-0.1h-1.3c-0.1,0-0.1,0-0.1-0.1v-0.5c0-0.1,0-0.1,0.1-0.1h2.1c0.1,0,0.1,0,0.1,0.1V51.4z"/>
	<path class="st3" d="M78.9,53.1c0,0.1,0,0.1-0.1,0.1h-0.5c-0.1,0-0.1,0-0.1-0.1v-0.5c0-0.1,0-0.1-0.1-0.1c0,0-0.1,0-0.1,0.1
		c-0.4,0.5-0.8,0.7-1.2,0.7c-0.6,0-1.1-0.2-1.5-0.5s-0.6-0.8-0.6-1.4V48c0-0.1,0-0.1,0.1-0.1h0.6c0.1,0,0.1,0,0.1,0.1v3.2
		c0,0.3,0.1,0.7,0.4,0.9s0.5,0.4,0.9,0.4c0.4,0,0.7-0.1,0.9-0.4s0.4-0.5,0.4-0.9V48c0-0.1,0-0.1,0.1-0.1h0.6c0.1,0,0.1,0,0.1,0.1
		L78.9,53.1L78.9,53.1z"/>
</g>
<g>
	<path class="st3" d="M82.8,53.2c0,0.1,0,0.1-0.1,0.1c-0.1,0-0.3,0-0.5-0.1c-0.9-0.3-1.3-0.9-1.3-1.8v-2.7c0-0.1,0-0.1-0.1-0.1H80
		c-0.1,0-0.1,0-0.1-0.1v-0.2l1.3-1.4c0-0.1,0.1-0.1,0.1-0.1h0.2c0.1,0,0.1,0,0.1,0.1v0.9c0,0.1,0,0.1,0.1,0.1h0.9
		c0.1,0,0.1,0,0.1,0.1v0.5c0,0.1,0,0.1-0.1,0.1h-0.9c-0.1,0-0.1,0-0.1,0.1v2.7c0,0.3,0.1,0.6,0.3,0.8c0.2,0.2,0.4,0.4,0.8,0.5
		c0.1,0,0.1,0,0.1,0.1L82.8,53.2L82.8,53.2z"/>
	<path class="st3" d="M88,50.5c0,0.1,0,0.1-0.1,0.1h-3.1c-0.1,0-0.1,0-0.1,0.1v0.7c0,0.3,0.1,0.7,0.4,0.9c0.2,0.2,0.5,0.4,0.9,0.4
		c0.5,0,0.8-0.2,1.1-0.7c0,0,0,0,0.1,0c0,0,0.1,0,0.1,0l0.4,0.2c0,0,0.1,0.1,0.1,0.1c0,0.1-0.1,0.2-0.3,0.4
		c-0.4,0.4-0.9,0.6-1.6,0.6c-0.6,0-1.1-0.2-1.5-0.5s-0.6-0.8-0.6-1.4v-1.6c0-0.5,0.2-0.9,0.6-1.3c0.4-0.4,0.9-0.6,1.5-0.6
		s1.1,0.2,1.5,0.6c0.4,0.4,0.6,0.8,0.6,1.3L88,50.5L88,50.5z M87.2,49.9v-0.2c0-0.3-0.1-0.7-0.4-0.9s-0.5-0.4-0.9-0.4
		c-0.4,0-0.7,0.1-0.9,0.4c-0.2,0.2-0.4,0.5-0.4,0.9v0.2c0,0.1,0,0.1,0.1,0.1h2.3C87.1,50,87.2,50,87.2,49.9z"/>
</g>
<g>
	<path class="st3" d="M91.7,48.6c0,0.1,0,0.1-0.1,0.1h-0.2c-0.4,0-0.7,0.1-0.9,0.4s-0.4,0.5-0.4,0.9v3.1c0,0.1,0,0.1-0.1,0.1h-0.6
		c-0.1,0-0.1,0-0.1-0.1V48c0-0.1,0-0.1,0.1-0.1h0.5c0.1,0,0.1,0,0.1,0.1v0.6c0,0.1,0,0.1,0.1,0.1c0,0,0.1,0,0.1-0.1
		c0.4-0.5,0.8-0.8,1.2-0.8h0.2c0.1,0,0.1,0,0.1,0.1L91.7,48.6L91.7,48.6z"/>
	<path class="st3" d="M99.8,51.1c0,0.6-0.2,1.1-0.6,1.5c-0.4,0.4-0.9,0.6-1.5,0.6h-2.3c-0.1,0-0.1,0-0.1-0.1v-7.3
		c0-0.1,0-0.1,0.1-0.1h2.3c0.6,0,1.1,0.2,1.5,0.6c0.4,0.4,0.6,0.9,0.6,1.5v0.1c0,0.2-0.1,0.5-0.2,0.8c-0.2,0.3-0.4,0.5-0.6,0.6
		c-0.1,0-0.1,0.1-0.1,0.1c0,0,0,0.1,0.1,0.1c0.2,0.1,0.5,0.3,0.6,0.6c0.2,0.3,0.3,0.6,0.3,0.9L99.8,51.1L99.8,51.1z M99,47.7v-0.1
		c0-0.3-0.1-0.7-0.4-0.9s-0.6-0.4-0.9-0.4h-1.5c-0.1,0-0.1,0-0.1,0.1v2.5c0,0.1,0,0.1,0.1,0.1h1.5c0.4,0,0.7-0.1,0.9-0.4
		C98.8,48.4,99,48.1,99,47.7z M99,51.2V51c0-0.3-0.1-0.7-0.4-0.9s-0.6-0.4-0.9-0.4h-1.5c-0.1,0-0.1,0-0.1,0.1v2.6
		c0,0.1,0,0.1,0.1,0.1h1.5c0.4,0,0.7-0.1,0.9-0.4C98.8,51.9,99,51.6,99,51.2z"/>
</g>
<g>
	<path class="st3" d="M105.2,51.4c0,0.6-0.2,1-0.6,1.4c-0.4,0.4-0.9,0.5-1.5,0.5c-0.6,0-1.1-0.2-1.5-0.5S101,52,101,51.4v-1.6
		c0-0.6,0.2-1.1,0.6-1.4c0.4-0.4,0.9-0.5,1.5-0.5s1.1,0.2,1.5,0.5c0.4,0.4,0.6,0.8,0.6,1.4L105.2,51.4L105.2,51.4z M104.4,51.4v-1.6
		c0-0.3-0.1-0.7-0.4-0.9c-0.2-0.2-0.5-0.4-0.9-0.4c-0.4,0-0.7,0.1-0.9,0.4c-0.2,0.2-0.4,0.5-0.4,0.9v1.6c0,0.3,0.1,0.7,0.4,0.9
		c0.2,0.2,0.5,0.4,0.9,0.4s0.6-0.1,0.9-0.4C104.2,52,104.4,51.7,104.4,51.4z"/>
	<path class="st3" d="M110.8,53.1c0,0.1,0,0.1-0.1,0.1h-0.5c-0.1,0-0.1,0-0.1-0.1v-0.5c0-0.1,0-0.1-0.1-0.1c0,0-0.1,0-0.1,0.1
		c-0.4,0.5-0.8,0.7-1.2,0.7c-0.6,0-1.1-0.2-1.5-0.5s-0.6-0.8-0.6-1.4v-1.4c0-0.6,0.2-1,0.6-1.4s0.8-0.5,1.4-0.5
		c0.4,0,0.8,0.2,1.2,0.7c0,0,0.1,0.1,0.1,0.1c0.1,0,0.1,0,0.1-0.1v-2.7c0-0.1,0-0.1,0.1-0.1h0.6c0.1,0,0.1,0,0.1,0.1L110.8,53.1
		L110.8,53.1z M109.9,51.2v-1.4c0-0.3-0.1-0.7-0.4-0.9s-0.5-0.4-0.9-0.4c-0.4,0-0.7,0.1-0.9,0.4c-0.2,0.2-0.4,0.5-0.4,0.9v1.4
		c0,0.3,0.1,0.7,0.4,0.9s0.5,0.4,0.9,0.4s0.6-0.1,0.9-0.4C109.8,51.9,109.9,51.6,109.9,51.2z"/>
</g>
<g>
	<path class="st3" d="M116.3,50.5c0,0.1,0,0.1-0.1,0.1H113c-0.1,0-0.1,0-0.1,0.1v0.7c0,0.3,0.1,0.7,0.4,0.9c0.2,0.2,0.5,0.4,0.9,0.4
		c0.5,0,0.8-0.2,1.1-0.7c0,0,0,0,0.1,0c0,0,0.1,0,0.1,0l0.4,0.2c0,0,0.1,0.1,0.1,0.1c0,0.1-0.1,0.2-0.3,0.4
		c-0.4,0.4-0.9,0.6-1.6,0.6c-0.6,0-1.1-0.2-1.5-0.5s-0.6-0.8-0.6-1.4v-1.6c0-0.5,0.2-0.9,0.6-1.3c0.4-0.4,0.9-0.6,1.5-0.6
		s1.1,0.2,1.5,0.6c0.4,0.4,0.6,0.8,0.6,1.3L116.3,50.5L116.3,50.5z M115.5,49.9v-0.2c0-0.3-0.1-0.7-0.4-0.9s-0.5-0.4-0.9-0.4
		c-0.4,0-0.7,0.1-0.9,0.4c-0.2,0.2-0.4,0.5-0.4,0.9v0.2c0,0.1,0,0.1,0.1,0.1h2.3C115.4,50,115.5,50,115.5,49.9z"/>
</g>
<g>
	<path class="st3" d="M121.8,53.1c0,0.1,0,0.1-0.1,0.1h-0.6c-0.1,0-0.1,0-0.1-0.1v-3.2c0-0.3-0.1-0.7-0.4-0.9
		c-0.3-0.2-0.6-0.4-0.9-0.4c-0.4,0-0.7,0.1-0.9,0.4c-0.2,0.2-0.4,0.5-0.4,0.9v3.2c0,0.1,0,0.1-0.1,0.1h-0.6c-0.1,0-0.1,0-0.1-0.1V48
		c0-0.1,0-0.1,0.1-0.1h0.5c0.1,0,0.1,0,0.1,0.1v0.5c0,0.1,0,0.1,0.1,0.1c0,0,0.1,0,0.1-0.1c0.4-0.5,0.8-0.7,1.2-0.7
		c0.6,0,1.1,0.2,1.5,0.5c0.4,0.4,0.6,0.8,0.6,1.4L121.8,53.1L121.8,53.1z"/>
	<path class="st3" d="M128.4,45.7l-0.1,0.5c0,0-0.1,0.1-0.1,0.1c0,0,0,0-0.1,0s-0.1,0-0.1,0c-0.4,0-0.7,0.1-0.9,0.4
		c-0.2,0.2-0.4,0.5-0.4,0.9v0.9c0,0.1,0,0.1,0.1,0.1h0.9c0.1,0,0.1,0,0.1,0.1V49c0,0.1,0,0.1-0.1,0.1h-0.9c-0.1,0-0.1,0-0.1,0.1v3.8
		c0,0.1,0,0.1-0.1,0.1H126c-0.1,0-0.1,0-0.1-0.1v-3.8c0-0.1,0-0.1-0.1-0.1h-0.3c-0.1,0-0.1,0-0.1-0.1v-0.4c0-0.1,0-0.1,0.1-0.1h0.3
		c0.1,0,0.1,0,0.1-0.1v-0.7c0-0.6,0.2-1.1,0.6-1.5c0.4-0.4,0.9-0.6,1.5-0.6C128.2,45.5,128.3,45.6,128.4,45.7
		C128.4,45.6,128.4,45.6,128.4,45.7z"/>
	<path class="st3" d="M133.1,53.1c0,0.1,0,0.1-0.1,0.1h-0.5c-0.1,0-0.1,0-0.1-0.1v-0.5c0-0.1,0-0.1-0.1-0.1c0,0-0.1,0-0.1,0.1
		c-0.4,0.5-0.8,0.7-1.2,0.7c-0.6,0-1.1-0.2-1.5-0.5s-0.6-0.8-0.6-1.4V48c0-0.1,0-0.1,0.1-0.1h0.6c0.1,0,0.1,0,0.1,0.1v3.2
		c0,0.3,0.1,0.7,0.4,0.9s0.5,0.4,0.9,0.4c0.4,0,0.7-0.1,0.9-0.4s0.4-0.5,0.4-0.9V48c0-0.1,0-0.1,0.1-0.1h0.6c0.1,0,0.1,0,0.1,0.1
		L133.1,53.1L133.1,53.1z M130.6,46.5c0,0.2,0,0.3-0.1,0.4S130.2,47,130,47s-0.3,0-0.4-0.2c-0.1-0.1-0.1-0.2-0.1-0.4s0-0.3,0.1-0.4
		s0.2-0.2,0.4-0.2s0.3,0,0.4,0.2C130.5,46.2,130.6,46.4,130.6,46.5z M132.5,46.5c0,0.1,0,0.3-0.2,0.4c-0.1,0.1-0.2,0.2-0.4,0.2
		s-0.3,0-0.4-0.2c-0.1-0.1-0.1-0.2-0.1-0.4c0-0.3,0.2-0.5,0.5-0.5c0.1,0,0.3,0,0.4,0.2C132.5,46.2,132.5,46.4,132.5,46.5z"/>
	<path class="st3" d="M137.3,48.6c0,0.1,0,0.1-0.1,0.1h-0.2c-0.4,0-0.7,0.1-0.9,0.4s-0.4,0.5-0.4,0.9v3.1c0,0.1,0,0.1-0.1,0.1H135
		c-0.1,0-0.1,0-0.1-0.1V48c0-0.1,0-0.1,0.1-0.1h0.4c0.1,0,0.1,0,0.1,0.1v0.6c0,0.1,0,0.1,0.1,0.1c0,0,0.1,0,0.1-0.1
		c0.4-0.5,0.8-0.8,1.2-0.8h0.2c0.1,0,0.1,0,0.1,0.1L137.3,48.6L137.3,48.6z"/>
	<path class="st3" d="M145.2,54.5c0,0.4-0.1,0.8-0.5,1c-0.3,0.2-0.6,0.4-1.1,0.4H142c-0.4,0-0.8-0.1-1.1-0.4c-0.3-0.3-0.4-0.6-0.4-1
		v-0.1c0-0.4,0.2-0.8,0.7-1.1c0,0,0.1,0,0.1-0.1c0,0,0-0.1-0.1-0.2c-0.1-0.2-0.2-0.4-0.2-0.5c0-0.2,0.1-0.4,0.2-0.6
		c0.1-0.1,0.1-0.2,0.1-0.2c0,0-0.1-0.1-0.2-0.2c-0.5-0.4-0.7-0.9-0.7-1.5v-0.1c0-0.6,0.2-1,0.6-1.4c0.4-0.4,0.9-0.5,1.5-0.5
		c0.4,0,0.8,0.2,1.2,0.7c0,0,0.1,0.1,0.1,0.1c0.1,0,0.1,0,0.1-0.1V48c0-0.1,0-0.1,0.1-0.1h0.5c0.1,0,0.1,0,0.1,0.1v2
		c0,0.6-0.2,1-0.6,1.4c-0.4,0.4-0.9,0.6-1.5,0.6c-0.1,0-0.2,0-0.4,0c-0.3,0.1-0.4,0.3-0.4,0.6c0,0.3,0.1,0.5,0.4,0.6h1.5
		c0.4,0,0.8,0.1,1.1,0.4C145,53.7,145.2,54.1,145.2,54.5L145.2,54.5L145.2,54.5z M143.8,50v-0.1c0-0.3-0.1-0.7-0.4-0.9
		s-0.5-0.4-0.9-0.4c-0.4,0-0.7,0.1-0.9,0.4c-0.2,0.2-0.4,0.5-0.4,0.9V50c0,0.3,0.1,0.7,0.4,0.9s0.5,0.4,0.9,0.4s0.6-0.1,0.9-0.4
		C143.7,50.6,143.8,50.3,143.8,50z M144.4,54.5L144.4,54.5c0-0.3-0.1-0.4-0.2-0.5c-0.1-0.1-0.3-0.2-0.5-0.2H142
		c-0.2,0-0.4,0.1-0.5,0.2c-0.1,0.1-0.2,0.3-0.2,0.5v0.1c0,0.2,0.1,0.4,0.2,0.5s0.3,0.2,0.5,0.2h1.7c0.2,0,0.4-0.1,0.5-0.2
		C144.3,54.9,144.4,54.7,144.4,54.5z"/>
	<path class="st3" d="M148.6,48.6c0,0.1,0,0.1-0.1,0.1h-0.2c-0.4,0-0.7,0.1-0.9,0.4c-0.2,0.2-0.4,0.5-0.4,0.9v3.1
		c0,0.1,0,0.1-0.1,0.1h-0.6c-0.1,0-0.1,0-0.1-0.1V48c0-0.1,0-0.1,0.1-0.1h0.5c0.1,0,0.1,0,0.1,0.1v0.6c0,0.1,0,0.1,0.1,0.1
		c0,0,0.1,0,0.1-0.1c0.4-0.5,0.8-0.8,1.2-0.8h0.2c0.1,0,0.1,0,0.1,0.1V48.6z"/>
	<path class="st3" d="M153.8,51.4c0,0.6-0.2,1-0.6,1.4c-0.4,0.4-0.9,0.5-1.5,0.5c-0.6,0-1.1-0.2-1.5-0.5s-0.6-0.8-0.6-1.4v-1.6
		c0-0.6,0.2-1.1,0.6-1.4c0.4-0.4,0.9-0.5,1.5-0.5s1.1,0.2,1.5,0.5c0.4,0.4,0.6,0.8,0.6,1.4L153.8,51.4L153.8,51.4z M153,51.4v-1.6
		c0-0.3-0.1-0.7-0.4-0.9c-0.2-0.2-0.5-0.4-0.9-0.4c-0.4,0-0.7,0.1-0.9,0.4c-0.2,0.2-0.4,0.5-0.4,0.9v1.6c0,0.3,0.1,0.7,0.4,0.9
		c0.2,0.2,0.5,0.4,0.9,0.4s0.6-0.1,0.9-0.4C152.9,52,153,51.7,153,51.4z"/>
	<path class="st3" d="M159.8,51.3c0,1-0.4,1.6-1.2,1.9c-0.2,0.1-0.5,0.1-0.6,0.1c-0.1,0-0.1,0-0.1-0.1v-0.5c0-0.1,0-0.1,0.1-0.1
		c0.3-0.1,0.6-0.2,0.8-0.5c0.2-0.2,0.3-0.5,0.3-0.8V51c0-0.3-0.1-0.6-0.3-0.8s-0.4-0.4-0.8-0.5c-0.1,0-0.1,0-0.1-0.1v-0.5
		c0-0.1,0-0.1,0.1-0.1c0.3-0.1,0.6-0.2,0.8-0.5c0.2-0.2,0.3-0.5,0.3-0.8v-0.2c0-0.4-0.1-0.7-0.4-0.9c-0.2-0.2-0.5-0.4-0.9-0.4
		c-0.4,0-0.7,0.1-0.9,0.4c-0.2,0.2-0.4,0.5-0.4,0.9v5.6c0,0.1,0,0.1-0.1,0.1h-0.6c-0.1,0-0.1,0-0.1-0.1v-3.8c0-0.1,0-0.1-0.1-0.1
		h-0.3c-0.1,0-0.1,0-0.1-0.1v-0.4c0-0.1,0-0.1,0.1-0.1h0.3c0.1,0,0.1,0,0.1-0.1v-0.7c0-0.6,0.2-1.1,0.6-1.5c0.4-0.4,0.9-0.6,1.5-0.6
		c0.6,0,1.1,0.2,1.5,0.6c0.4,0.4,0.6,0.9,0.6,1.5v0.2c0,0.3-0.1,0.5-0.3,0.8c-0.2,0.3-0.4,0.5-0.6,0.6c-0.1,0-0.1,0.1-0.1,0.1
		s0,0.1,0.1,0.1c0.3,0.1,0.5,0.3,0.6,0.6c0.2,0.3,0.3,0.6,0.3,0.8V51.3z"/>
	<path class="st3" d="M165.3,50.5c0,0.1,0,0.1-0.1,0.1H162c-0.1,0-0.1,0-0.1,0.1v0.7c0,0.3,0.1,0.7,0.4,0.9c0.2,0.2,0.5,0.4,0.9,0.4
		c0.5,0,0.8-0.2,1.1-0.7c0,0,0,0,0.1,0c0,0,0.1,0,0.1,0l0.4,0.2c0,0,0.1,0.1,0.1,0.1c0,0.1-0.1,0.2-0.3,0.4
		c-0.4,0.4-0.9,0.6-1.6,0.6c-0.6,0-1.1-0.2-1.5-0.5s-0.6-0.8-0.6-1.4v-1.6c0-0.5,0.2-0.9,0.6-1.3c0.4-0.4,0.9-0.6,1.5-0.6
		s1.1,0.2,1.5,0.6c0.4,0.4,0.6,0.8,0.6,1.3L165.3,50.5L165.3,50.5z M164.5,49.9v-0.2c0-0.3-0.1-0.7-0.4-0.9s-0.5-0.4-0.9-0.4
		c-0.4,0-0.7,0.1-0.9,0.4c-0.2,0.2-0.4,0.5-0.4,0.9v0.2c0,0.1,0,0.1,0.1,0.1h2.3C164.4,50,164.5,50,164.5,49.9z"/>
	<path class="st3" d="M173.4,45.8c0,0,0,0.1-0.1,0.4l-2.1,7c0,0,0,0.1-0.1,0.1h-0.4c-0.1,0-0.1,0-0.1-0.1l-2.2-7.1
		c-0.1-0.2-0.1-0.3-0.1-0.3c0-0.1,0-0.1,0.1-0.1h0.6c0.1,0,0.1,0,0.1,0.1l1.6,5.6l0.1,0.5h0.1l0.1-0.5l1.5-5.6c0,0,0-0.1,0.1-0.1
		h0.6C173.4,45.7,173.4,45.7,173.4,45.8z"/>
</g>
<g>
	<path class="st3" d="M177.7,51.4c0,0.6-0.2,1-0.6,1.4c-0.4,0.4-0.9,0.5-1.5,0.5c-0.6,0-1.1-0.2-1.5-0.5s-0.6-0.8-0.6-1.4v-1.6
		c0-0.6,0.2-1.1,0.6-1.4c0.4-0.4,0.9-0.5,1.5-0.5s1.1,0.2,1.5,0.5c0.4,0.4,0.6,0.8,0.6,1.4L177.7,51.4L177.7,51.4z M176.9,51.4v-1.6
		c0-0.3-0.1-0.7-0.4-0.9c-0.2-0.2-0.5-0.4-0.9-0.4c-0.4,0-0.7,0.1-0.9,0.4c-0.2,0.2-0.4,0.5-0.4,0.9v1.6c0,0.3,0.1,0.7,0.4,0.9
		c0.2,0.2,0.5,0.4,0.9,0.4s0.6-0.1,0.9-0.4C176.8,52,176.9,51.7,176.9,51.4z"/>
	<path class="st3" d="M181.5,48.6c0,0.1,0,0.1-0.1,0.1h-0.2c-0.4,0-0.7,0.1-0.9,0.4s-0.4,0.5-0.4,0.9v3.1c0,0.1,0,0.1-0.1,0.1h-0.6
		c-0.1,0-0.1,0-0.1-0.1V48c0-0.1,0-0.1,0.1-0.1h0.5c0.1,0,0.1,0,0.1,0.1v0.6c0,0.1,0,0.1,0.1,0.1c0,0,0.1,0,0.1-0.1
		c0.4-0.5,0.8-0.8,1.2-0.8h0.2c0.1,0,0.1,0,0.1,0.1V48.6z"/>
</g>
<g>
	<path class="st3" d="M186.9,53.1c0,0.1,0,0.1-0.1,0.1h-0.6c-0.1,0-0.1,0-0.1-0.1v-3.2c0-0.3-0.1-0.7-0.4-0.9
		c-0.3-0.2-0.6-0.4-0.9-0.4c-0.4,0-0.7,0.1-0.9,0.4c-0.2,0.2-0.4,0.5-0.4,0.9v3.2c0,0.1,0,0.1-0.1,0.1h-0.6c-0.1,0-0.1,0-0.1-0.1
		v-7.3c0-0.1,0-0.1,0.1-0.1h0.6c0.1,0,0.1,0,0.1,0.1v2.7c0,0.1,0,0.1,0.1,0.1c0,0,0.1,0,0.1-0.1c0.4-0.4,0.8-0.7,1.2-0.7
		c0.6,0,1,0.2,1.4,0.5s0.6,0.8,0.6,1.4L186.9,53.1L186.9,53.1z"/>
	<path class="st3" d="M192.2,53.1c0,0.1,0,0.1-0.1,0.1h-0.4c-0.1,0-0.1,0-0.1-0.1v-0.5c0-0.1,0-0.1-0.1-0.1c0,0-0.1,0-0.1,0.1
		c-0.4,0.5-0.8,0.7-1.1,0.7h-0.5c-0.4,0-0.8-0.1-1.1-0.4c-0.3-0.3-0.4-0.6-0.4-1v-0.1c0-0.4,0.1-0.8,0.4-1c0.3-0.2,0.6-0.4,1.1-0.4
		h1.6c0.1,0,0.1,0,0.1-0.1v-0.5c0-0.3-0.1-0.7-0.4-0.9c-0.2-0.2-0.6-0.4-0.9-0.4c-0.5,0-0.8,0.2-1.1,0.7c0,0-0.1,0.1-0.1,0.1
		s-0.1,0-0.1,0l-0.4-0.2c0,0-0.1-0.1-0.1-0.1c0,0,0.1-0.2,0.2-0.4c0.4-0.5,0.9-0.7,1.6-0.7c0.6,0,1.1,0.2,1.5,0.5
		c0.4,0.3,0.6,0.8,0.6,1.4V53.1z M191.4,51.5V51c0-0.1,0-0.1-0.1-0.1h-1.6c-0.2,0-0.4,0.1-0.5,0.2c-0.1,0.1-0.2,0.3-0.2,0.5v0.2
		c0,0.2,0.1,0.4,0.2,0.5c0.1,0.1,0.3,0.2,0.5,0.2h0.5c0.3,0,0.5-0.1,0.7-0.3C191.1,52,191.3,51.8,191.4,51.5z"/>
	<path class="st3" d="M197.9,51.2c0,0.6-0.2,1.1-0.6,1.4c-0.4,0.4-0.9,0.5-1.5,0.5c-0.4,0-0.8-0.2-1.2-0.7c0,0-0.1-0.1-0.1-0.1
		c-0.1,0-0.1,0-0.1,0.1v0.5c0,0.1,0,0.1-0.1,0.1h-0.4c-0.1,0-0.1,0-0.1-0.1v-7.3c0-0.1,0-0.1,0.1-0.1h0.6c0.1,0,0.1,0,0.1,0.1v2.7
		c0,0.1,0,0.1,0.1,0.1c0,0,0.1,0,0.1-0.1c0.4-0.4,0.8-0.7,1.2-0.7c0.6,0,1,0.2,1.4,0.5s0.6,0.8,0.6,1.4L197.9,51.2L197.9,51.2z
		 M197.1,51.2v-1.4c0-0.3-0.1-0.7-0.4-0.9c-0.3-0.2-0.6-0.4-0.9-0.4c-0.4,0-0.7,0.1-0.9,0.4c-0.2,0.2-0.4,0.5-0.4,0.9v1.4
		c0,0.3,0.1,0.7,0.4,0.9c0.2,0.2,0.5,0.4,0.9,0.4s0.6-0.1,0.9-0.4C197,51.9,197.1,51.6,197.1,51.2z"/>
	<path class="st3" d="M203.2,50.5c0,0.1,0,0.1-0.1,0.1H200c-0.1,0-0.1,0-0.1,0.1v0.7c0,0.3,0.1,0.7,0.4,0.9c0.2,0.2,0.5,0.4,0.9,0.4
		c0.5,0,0.8-0.2,1.1-0.7c0,0,0,0,0.1,0c0,0,0.1,0,0.1,0l0.4,0.2c0,0,0.1,0.1,0.1,0.1c0,0.1-0.1,0.2-0.3,0.4
		c-0.4,0.4-0.9,0.6-1.6,0.6c-0.6,0-1.1-0.2-1.5-0.5s-0.6-0.8-0.6-1.4v-1.6c0-0.5,0.2-0.9,0.6-1.3c0.4-0.4,0.9-0.6,1.5-0.6
		s1.1,0.2,1.5,0.6c0.4,0.4,0.6,0.8,0.6,1.3L203.2,50.5L203.2,50.5z M202.4,49.9v-0.2c0-0.3-0.1-0.7-0.4-0.9s-0.5-0.4-0.9-0.4
		c-0.4,0-0.7,0.1-0.9,0.4c-0.2,0.2-0.4,0.5-0.4,0.9v0.2c0,0.1,0,0.1,0.1,0.1h2.3C202.4,50,202.4,50,202.4,49.9z"/>
</g>
<g>
	<path class="st3" d="M208.7,53.1c0,0.1,0,0.1-0.1,0.1H208c-0.1,0-0.1,0-0.1-0.1v-3.2c0-0.3-0.1-0.7-0.4-0.9
		c-0.3-0.2-0.6-0.4-0.9-0.4c-0.4,0-0.7,0.1-0.9,0.4c-0.2,0.2-0.4,0.5-0.4,0.9v3.2c0,0.1,0,0.1-0.1,0.1h-0.6c-0.1,0-0.1,0-0.1-0.1V48
		c0-0.1,0-0.1,0.1-0.1h0.4c0.1,0,0.1,0,0.1,0.1v0.5c0,0.1,0,0.1,0.1,0.1c0,0,0.1,0,0.1-0.1c0.4-0.5,0.8-0.7,1.2-0.7
		c0.6,0,1.1,0.2,1.5,0.5c0.4,0.4,0.6,0.8,0.6,1.4V53.1z"/>
</g>
<g>
	<polygon class="st3" points="57,63.9 56.4,63.9 56.4,18.6 57,18.6 	"/>
</g>
</svg>
