<?xml version="1.0" encoding="UTF-8"?>
<svg xmlns="http://www.w3.org/2000/svg" xmlns:xlink="http://www.w3.org/1999/xlink" id="Ebene_1" version="1.1" viewBox="0 0 1013.39 327.32">
  <defs>
    <style>
      .st0 {
        fill: #8c231f;
      }

      .st1 {
        fill: #fff;
      }

      .st2 {
        fill: none;
      }

      .st3 {
        clip-path: url(#clippath-1);
      }

      .st4 {
        fill: #e42313;
      }

      .st5 {
        fill: #c90c0f;
      }

      .st6 {
        clip-path: url(#clippath);
      }
    </style>
    <clipPath id="clippath">
      <rect class="st2" y="0" width="1013.38" height="327.32"></rect>
    </clipPath>
    <clipPath id="clippath-1">
      <rect class="st2" y="0" width="1013.38" height="327.32"></rect>
    </clipPath>
  </defs>
  <g class="st6">
    <g>
      <path class="st1" d="M57.19,91.02c1.68,1.68,1.55,3.5,0,5.18l-7.64,7.77c-1.68,1.68-3.37,1.55-5.18.13-3.63-3.11-7.9-4.66-13.21-4.66-6.35,0-9.84,3.11-9.84,8.68,0,4.79,3.63,7.12,13.86,8.81,19.03,3.11,26.42,11.14,26.42,27.06s-11.4,26.93-28.88,26.93c-13.59,0-23.7-3.62-31.21-11.26-1.55-1.68-1.42-3.5.13-5.05l7.64-7.9c1.69-1.68,3.37-1.68,5.18,0,5.05,4.4,10.75,6.6,17.1,6.6s9.84-3.11,9.84-8.68c0-4.79-3.5-6.99-13.85-8.8-19.05-3.24-26.43-11.14-26.43-27.07s11.4-26.93,28.88-26.93c11.91,0,20.72,2.98,27.2,9.19"></path>
      <path class="st1" d="M172.41,165.74c0,2.33-1.29,3.63-3.63,3.63h-12.95c-2.33,0-3.63-1.29-3.63-3.63v-64.74h-17.35c-2.33,0-3.63-1.29-3.63-3.63v-10.36c0-2.33,1.29-3.63,3.63-3.63h54.9c2.33,0,3.63,1.29,3.63,3.63v10.36c0,2.33-1.29,3.63-3.63,3.63h-17.35v64.74h.01Z"></path>
      <path class="st1" d="M290.62,106.95l-8.02,31.98h16.44l-8.15-31.98h-.27ZM327,165.22c.78,2.59-.39,4.14-2.97,4.14h-13.73c-2.2,0-3.49-1.04-4.01-3.11l-2.84-10.49h-25.38l-2.85,10.49c-.52,2.07-1.81,3.11-4.01,3.11h-13.21c-2.59,0-3.76-1.55-2.98-4.14l24.09-78.86c.65-1.94,1.94-2.98,4.01-2.98h15.79c2.07,0,3.36,1.04,4.02,2.98l24.08,78.86h0Z"></path>
      <path class="st1" d="M466.7,165.74c0,2.33-1.29,3.63-3.62,3.63h-12.95c-2.33,0-3.62-1.29-3.62-3.63v-31.08h-23.05v31.08c0,2.33-1.29,3.63-3.63,3.63h-12.95c-2.33,0-3.63-1.29-3.63-3.63v-78.73c0-2.33,1.29-3.63,3.63-3.63h12.95c2.33,0,3.63,1.29,3.63,3.63v30.04h23.05v-30.04c0-2.33,1.3-3.63,3.62-3.63h12.95c2.33,0,3.62,1.29,3.62,3.63v78.73Z"></path>
      <path class="st1" d="M603.03,165.74c0,2.33-1.3,3.63-3.63,3.63h-47.26c-2.33,0-3.63-1.29-3.63-3.63v-78.73c0-2.33,1.3-3.63,3.63-3.63h12.95c2.33,0,3.63,1.29,3.63,3.63v64.74h30.69c2.33,0,3.63,1.29,3.63,3.63v10.36h-.01Z"></path>
    </g>
  </g>
  <polygon class="st4" points="786.61 114.56 871.65 163.66 956.69 114.56 871.65 65.46 786.61 114.56"></polygon>
  <polygon class="st5" points="786.61 114.56 786.61 212.76 871.65 261.85 871.65 163.66 786.61 114.56"></polygon>
  <polygon class="st0" points="871.65 163.66 871.65 261.85 956.69 212.76 956.69 114.56 871.65 163.66"></polygon>
  <polygon class="st4" points="871.65 286.4 765.35 225.03 729.92 245.49 871.65 327.32 1013.39 245.49 977.95 225.03 871.65 286.4"></polygon>
  <polygon class="st0" points="871.65 0 729.92 81.83 729.92 245.49 765.35 225.03 765.35 102.29 871.65 40.91 871.65 0"></polygon>
  <polygon class="st5" points="871.65 0 871.65 40.91 977.95 102.29 977.95 225.03 1013.39 245.49 1013.39 81.83 871.65 0"></polygon>
  <g class="st3">
    <path class="st1" d="M585.36,243.66c0,.64.32.96.96.96h1.99c.64,0,.96-.32.96-.96v-19.93c0-5.58,2.05-8.08,6.73-8.08,1.79,0,3.4.51,4.87,1.54.51.38.96.32,1.35-.26l.83-1.28c.32-.51.19-.96-.32-1.35-1.92-1.35-4.3-2.05-7.05-2.05-6.79,0-10.32,3.85-10.32,11.22v20.19ZM562.86,226.8h-15.45v-1.99c0-6.28,2.44-9.17,7.69-9.17s7.76,2.89,7.76,9.17v1.99ZM555.04,212.25c-7.5,0-11.54,4.17-11.54,11.99v8.91c0,8.14,4.29,12.24,12.43,12.24,3.85,0,7.12-1.35,9.68-4.04.38-.45.38-.96,0-1.41l-1.09-1.22c-.39-.51-.9-.51-1.35,0-2.12,2.24-4.23,3.27-7.05,3.27-6.03,0-8.72-2.82-8.72-9.42v-2.5h18.2c.64,0,.96-.32.96-.96v-4.87c0-7.82-3.97-11.99-11.54-11.99M520.04,243.66c0,.64.32.96.96.96h1.99c.64,0,.96-.32.96-.96v-19.68c0-7.69-3.97-11.73-11.54-11.73s-11.54,4.04-11.54,11.73v19.68c0,.64.32.96.96.96h1.99c.64,0,.96-.32.96-.96v-19.1c0-6.09,2.44-8.91,7.63-8.91s7.63,2.82,7.63,8.91v19.1ZM482.99,241.29c-.26-.64-.77-.71-1.41-.32-1.15.71-2.37,1.03-3.78,1.03-3.78,0-5.71-2.11-5.71-6.35v-19.23h9.68c.64,0,.96-.32.96-.96v-1.47c0-.64-.32-.96-.96-.96h-9.68v-7.63c0-.64-.32-.96-.96-.96h-1.99c-.64,0-.96.32-.96.96v7.63h-3.85c-.64,0-.96.32-.96.96v1.47c0,.64.32.96.96.96h3.85v19.42c0,6.22,3.2,9.55,9.23,9.55,2.18,0,4.23-.45,5.77-1.41.51-.32.58-.77.38-1.28l-.58-1.41h0ZM431.33,243.66c0,.64.32.96.96.96h1.99c.64,0,.96-.32.96-.96v-19.93c0-5.58,2.05-8.08,6.73-8.08,1.79,0,3.4.51,4.87,1.54.51.38.96.32,1.35-.26l.83-1.28c.32-.51.19-.96-.32-1.35-1.92-1.35-4.29-2.05-7.05-2.05-6.79,0-10.32,3.85-10.32,11.22v20.19h0ZM399.86,241.99c-4.61,0-7.24-2.18-7.24-6.22s2.88-6.22,7.82-6.22h7.37v3.2c0,6.35-2.5,9.23-7.95,9.23M399.98,212.25c-3.72,0-6.99,1.15-9.68,3.59-.45.45-.45.9-.06,1.35l1.09,1.41c.39.51.83.51,1.28.06,1.8-1.79,4.36-3.01,7.05-3.01,5.51,0,8.14,2.89,8.14,9.42v1.22h-7.82c-7.24,0-11.28,3.59-11.28,9.49s4.04,9.61,11.15,9.61c7.82,0,11.86-4.23,11.86-12.05v-8.91c0-8.01-4.04-12.18-11.73-12.18M366.91,232.76c0,6.28-2.44,9.23-7.82,9.23s-7.89-3.08-7.89-9.23v-7.95c0-6.28,2.5-9.17,7.89-9.17s7.82,2.89,7.82,9.17v7.95ZM359.09,212.25c-7.69,0-11.8,4.17-11.8,11.99v29.68c0,.64.32.96.96.96h1.99c.64,0,.96-.32.96-.96v-12.56h.07c1.67,2.69,4.49,4.04,8.33,4.04,7.31,0,11.22-4.17,11.22-11.99v-9.17c0-7.82-4.1-11.99-11.73-11.99M316.01,212.25c-4.55,0-7.56,1.6-9.1,4.81h-.07c-1.67-3.21-4.68-4.81-9.29-4.81-6.99,0-10.7,4.04-10.7,11.67v19.74c0,.64.32.96.96.96h1.99c.64,0,.96-.32.96-.96v-19.17c0-6.09,2.18-8.85,6.99-8.85s7.18,2.76,7.18,8.85v19.17c0,.64.32.96.96.96h1.99c.64,0,.96-.32.96-.96v-19.17c0-6.09,2.18-8.85,6.99-8.85s7.12,2.76,7.12,8.85v19.17c0,.64.32.96.96.96h1.99c.64,0,.96-.32.96-.96v-19.74c0-7.63-3.72-11.67-10.83-11.67M264.35,226.8h-15.45v-1.99c0-6.28,2.44-9.17,7.69-9.17s7.76,2.89,7.76,9.17v1.99ZM256.53,212.25c-7.5,0-11.54,4.17-11.54,11.99v8.91c0,8.14,4.29,12.24,12.44,12.24,3.85,0,7.12-1.35,9.68-4.04.38-.45.38-.96,0-1.41l-1.09-1.22c-.38-.51-.9-.51-1.35,0-2.11,2.24-4.23,3.27-7.05,3.27-6.02,0-8.72-2.82-8.72-9.42v-2.5h18.21c.64,0,.96-.32.96-.96v-4.87c0-7.82-3.97-11.99-11.54-11.99M228,241.29c-.26-.64-.77-.71-1.41-.32-1.15.71-2.37,1.03-3.78,1.03-3.78,0-5.71-2.11-5.71-6.35v-19.23h9.68c.64,0,.96-.32.96-.96v-1.47c0-.64-.32-.96-.96-.96h-9.68v-7.63c0-.64-.32-.96-.96-.96h-1.99c-.64,0-.96.32-.96.96v7.63h-3.85c-.64,0-.96.32-.96.96v1.47c0,.64.32.96.96.96h3.85v19.42c0,6.22,3.2,9.55,9.23,9.55,2.18,0,4.23-.45,5.77-1.41.51-.32.58-.77.38-1.28l-.58-1.41h.01ZM193.84,236.1c0-5.58-2.69-8.27-10.38-9.29-5.77-.77-7.5-2.24-7.5-5.26,0-3.78,2.63-5.9,7.5-5.9,2.5,0,4.94.77,6.79,2.24.51.38.96.32,1.35-.19l.9-1.22c.38-.51.32-.9-.19-1.35-2.24-1.86-5.51-2.88-9.17-2.88-6.73,0-11.09,3.59-11.09,9.23,0,5.26,2.63,7.76,10,8.85,6.03.9,7.88,2.44,7.88,5.77,0,3.78-2.56,5.9-7.11,5.9-3.65,0-6.54-1.03-8.65-3.14-.51-.51-1.03-.45-1.41,0l-1.03,1.28c-.38.45-.38.9.06,1.35,2.82,2.69,6.41,3.91,11.41,3.91,6.54,0,10.64-3.59,10.64-9.29M152.75,213.98c0-.64-.32-.96-.96-.96h-1.99c-.64,0-.96.32-.96.96v18.14c0,6.03-2.56,8.97-7.63,8.97s-7.63-2.82-7.63-8.97v-18.14c0-.64-.32-.96-.96-.96h-1.99c-.64,0-.96.32-.96.96v18.78c0,7.63,3.78,11.73,10.9,11.73,3.78,0,6.6-1.28,8.2-3.91h.07v3.46c0,5.26-2.82,8.21-7.95,8.21-3.21,0-5.71-.96-7.95-3.01-.45-.45-.96-.38-1.35.13l-.96,1.28c-.32.45-.32.9.13,1.35,2.69,2.44,6.09,3.65,10.32,3.65,7.24,0,11.67-4.17,11.67-11.09v-30.57h0ZM111.66,236.1c0-5.58-2.69-8.27-10.38-9.29-5.77-.77-7.5-2.24-7.5-5.26,0-3.78,2.63-5.9,7.5-5.9,2.5,0,4.94.77,6.79,2.24.51.38.96.32,1.35-.19l.9-1.22c.39-.51.32-.9-.19-1.35-2.24-1.86-5.51-2.88-9.17-2.88-6.73,0-11.09,3.59-11.09,9.23,0,5.26,2.63,7.76,10,8.85,6.02.9,7.88,2.44,7.88,5.77,0,3.78-2.56,5.9-7.11,5.9-3.65,0-6.54-1.03-8.65-3.14-.51-.51-1.03-.45-1.41,0l-1.03,1.28c-.38.45-.38.9.06,1.35,2.82,2.69,6.41,3.91,11.41,3.91,6.54,0,10.64-3.59,10.64-9.29M72.37,229.11c.64,0,.96-.32.96-.96v-1.86c0-.64-.32-.96-.96-.96h-15.38c-.64,0-.96.32-.96.96v1.86c0,.64.32.96.96.96h15.38ZM42.05,241.29c-.26-.64-.77-.71-1.41-.32-1.15.71-2.37,1.03-3.78,1.03-3.78,0-5.71-2.11-5.71-6.35v-19.23h9.68c.64,0,.96-.32.96-.96v-1.47c0-.64-.32-.96-.96-.96h-9.68v-7.63c0-.64-.32-.96-.96-.96h-1.99c-.64,0-.96.32-.96.96v7.63h-3.85c-.64,0-.96.32-.96.96v1.47c0,.64.32.96.96.96h3.85v19.42c0,6.22,3.2,9.55,9.23,9.55,2.18,0,4.23-.45,5.77-1.41.51-.32.58-.77.38-1.28l-.58-1.41h0ZM3.72,244.62c.64,0,.96-.32.96-.96v-29.68c0-.64-.32-.96-.96-.96h-1.99c-.64,0-.96.32-.96.96v29.68c0,.64.32.96.96.96h1.99ZM2.7,206.61c1.54,0,2.69-1.15,2.69-2.69s-1.15-2.69-2.69-2.69-2.7,1.15-2.7,2.69,1.15,2.69,2.69,2.69"></path>
  </g>
</svg>
